<?xml version="1.0" encoding="utf-8"?>
<!-- Generator: Adobe Illustrator 24.2.1, SVG Export Plug-In . SVG Version: 6.00 Build 0)  -->
<svg version="1.1" id="Warstwa_1" xmlns="http://www.w3.org/2000/svg" xmlns:xlink="http://www.w3.org/1999/xlink" x="0px" y="0px"
	 viewBox="0 0 2000 2000" style="enable-background:new 0 0 2000 2000;" xml:space="preserve">
<style type="text/css">
	.st0{fill:#FFFFFF;}
	.st1{fill:url(#SVGID_1_);}
	.st2{opacity:8.000000e-02;fill:#FFFFFF;}
	.st3{opacity:0.3;}
	.st4{opacity:0.2;}
	.st5{opacity:0.2;fill:#FFFFFF;}
	.st6{fill:url(#SVGID_2_);}
	.st7{opacity:0.7;fill:#FFFFFF;}
	.st8{fill:url(#SVGID_3_);}
	.st9{fill:url(#SVGID_4_);}
	.st10{fill:url(#SVGID_5_);}
</style>
<g>
	<path class="st0" d="M1041.9,1270.9l-194.5-34.3c-18.9-3.3-31.5-21.4-28.2-40.3l77.4-439c3.3-18.9,21.4-31.5,40.3-28.2l194.5,34.3
		c18.9,3.3,31.5,21.4,28.2,40.3l-77.4,439C1078.8,1261.6,1060.8,1274.2,1041.9,1270.9z"/>
	
		<linearGradient id="SVGID_1_" gradientUnits="userSpaceOnUse" x1="635.0246" y1="1084.3829" x2="883.4116" y2="1084.3829" gradientTransform="matrix(0.9848 0.1736 -0.1736 0.9848 429.9436 -199.7007)">
		<stop  offset="0" style="stop-color:#A042F2"/>
		<stop  offset="0.9986" style="stop-color:#4E00FF"/>
	</linearGradient>
	<path class="st1" d="M1041.1,1261.3l-189.8-33.5c-15.1-2.7-25.2-17.1-22.6-32.2l76.6-434.4c2.7-15.1,17.1-25.2,32.2-22.6
		l189.8,33.5c15.1,2.7,25.2,17.1,22.6,32.2l-76.6,434.4C1070.7,1253.9,1056.3,1264,1041.1,1261.3z"/>
	<path class="st0" d="M1072.8,780l-86.6-15.3c-9.4-1.7-15.6-10.6-14-20l0,0l0.9-5.2l120.6,21.3l-0.9,5.2l0,0
		C1091.1,775.4,1082.2,781.7,1072.8,780z"/>
	<path class="st2" d="M1127.4,772.2l-27.2-4.8c-0.3,0.4-0.5,0.9-0.8,1.3c-15.6,26.4-11.1,59.6-6.9,90c4.2,30.4,6.7,64.3-11.7,88.9
		c-14.6,19.5-39.3,28.4-63,33.7c-23.7,5.3-48.6,8.2-70,19.8c-35.5,19.2-55.8,60.4-56.4,100.8c-0.6,40.4,16.3,79.5,40.3,111.9
		c8.7,11.8,18.4,22.9,28.6,33.4l80.7,14.2c15.1,2.7,29.6-7.4,32.2-22.6l76.6-434.4C1152.6,789.3,1142.5,774.8,1127.4,772.2z"/>
	<path class="st2" d="M1041.1,1261.3c15.1,2.7,29.6-7.4,32.2-22.6l3.5-19.9c-18.2-20.9-44-33.7-68-47.9c-25.2-15-50.5-34.1-59.7-62
		c-6.1-18.5-4.2-38.7-0.7-57.9c6-33,16.5-65.2,19.6-98.5c3.1-33.4-2.3-69.4-24.3-94.7c-13.3-15.3-30.8-24.8-50-30.8l-65,368.5
		c-2.7,15.1,7.4,29.6,22.6,32.2L1041.1,1261.3z"/>
	<g class="st3">
		<g>
			<path class="st0" d="M1334.4,1554.9c-2.1,0-4.2-0.2-6.3-0.6l-194.5-34.3c-19.4-3.4-32.3-22-28.9-41.3l77.4-439
				c1.6-9.3,6.8-17.5,14.5-23c7.8-5.6,17.4-7.7,26.9-6L1418,1045c19.4,3.4,32.3,22,28.9,41.3l-77.4,439c-1.6,9.3-6.8,17.5-14.5,23
				C1348.8,1552.7,1341.7,1554.9,1334.4,1554.9z M1328.5,1552.6c9,1.6,18-0.4,25.4-5.7c7.3-5.2,12.2-12.9,13.7-21.7l77.4-439
				c3.2-18.4-9.1-36-27.5-39.3l-194.5-34.3c-9-1.6-18,0.4-25.4,5.7c-7.3,5.2-12.2,12.9-13.7,21.7l-77.4,439
				c-3.2,18.4,9.1,36,27.5,39.3L1328.5,1552.6z"/>
		</g>
		<g>
			<path class="st0" d="M1332.4,1545.2c-1.7,0-3.4-0.1-5.1-0.4l-189.8-33.5c-15.6-2.7-26-17.7-23.3-33.3l76.6-434.3
				c1.3-7.5,5.5-14.1,11.7-18.5c6.3-4.5,14-6.2,21.6-4.9l189.8,33.5c15.6,2.7,26,17.7,23.3,33.3l-76.6,434.3
				c-1.3,7.5-5.5,14.1-11.7,18.5C1344.1,1543.4,1338.3,1545.2,1332.4,1545.2z M1327.8,1543c7.1,1.3,14.3-0.4,20.2-4.5
				c5.8-4.1,9.7-10.2,10.9-17.3l76.6-434.3c2.6-14.6-7.2-28.6-21.9-31.2l-189.8-33.5c-7.1-1.3-14.3,0.4-20.2,4.5
				c-5.8,4.1-9.7,10.2-10.9,17.3l-76.6,434.4c-2.6,14.6,7.2,28.6,21.9,31.2L1327.8,1543z"/>
		</g>
		<g>
			<path class="st0" d="M1362.2,1063.8c-1.1,0-2.1-0.1-3.2-0.3l-86.6-15.3c-9.8-1.7-16.4-11.2-14.7-21l1.8,0.3
				c-1.6,8.9,4.4,17.4,13.3,18.9l86.6,15.3c4.3,0.8,8.7-0.2,12.3-2.7c3.5-2.5,5.9-6.2,6.6-10.5l1.8,0.3c-0.8,4.7-3.5,8.9-7.4,11.7
				C1369.6,1062.6,1366,1063.8,1362.2,1063.8z"/>
		</g>
		<g class="st4">
			<path class="st0" d="M1413.8,1054.7l-27.2-4.8c-0.3,0.4-0.5,0.9-0.8,1.3c-15.6,26.4-11.1,59.6-6.9,90s6.7,64.3-11.7,88.9
				c-14.6,19.5-39.3,28.4-63,33.7c-23.7,5.3-48.6,8.2-70,19.8c-35.5,19.2-55.8,60.4-56.4,100.8c-0.6,40.4,16.3,79.5,40.3,111.9
				c8.7,11.8,18.4,22.9,28.6,33.4l80.7,14.2c15.1,2.7,29.6-7.4,32.2-22.6l76.6-434.4C1439.1,1071.8,1428.9,1057.4,1413.8,1054.7z"/>
		</g>
		<g class="st4">
			<path class="st0" d="M1327.6,1543.9c15.1,2.7,29.6-7.4,32.2-22.6l3.5-19.9c-18.2-20.9-44-33.7-68-47.9
				c-25.2-15-50.5-34.1-59.7-62c-6.1-18.5-4.2-38.7-0.7-57.9c6-33,16.5-65.2,19.6-98.5c3.1-33.4-2.3-69.4-24.3-94.7
				c-13.3-15.3-30.8-24.8-50-30.8l-65,368.5c-2.7,15.1,7.4,29.6,22.6,32.2L1327.6,1543.9z"/>
		</g>
	</g>
	<g class="st3">
		<g>
			<path class="st0" d="M947.3,1843c-2.1,0-4.2-0.2-6.3-0.6l-194.5-34.3c-19.4-3.4-32.3-22-28.9-41.3l77.4-439
				c1.6-9.3,6.8-17.5,14.5-23c7.8-5.6,17.4-7.7,26.9-6l194.5,34.3c19.4,3.4,32.3,22,28.9,41.3l-77.4,439c-1.6,9.3-6.8,17.5-14.5,23
				C961.8,1840.8,954.7,1843,947.3,1843z M941.4,1840.7c9,1.6,18-0.4,25.4-5.7c7.3-5.2,12.2-12.9,13.7-21.7l77.4-439
				c3.2-18.4-9.1-36-27.5-39.3l-194.5-34.3c-9-1.6-18,0.4-25.4,5.7c-7.3,5.2-12.2,12.9-13.7,21.7l-77.4,439
				c-3.2,18.4,9.1,36,27.5,39.3L941.4,1840.7z"/>
		</g>
		<g>
			<path class="st0" d="M945.4,1833.3c-1.7,0-3.4-0.1-5.1-0.4l-189.8-33.5c-15.6-2.7-26-17.7-23.3-33.3l76.6-434.4
				c1.3-7.5,5.5-14.1,11.7-18.5c6.3-4.5,14-6.2,21.6-4.9l189.8,33.5c15.6,2.7,26,17.7,23.3,33.3l-76.6,434.4
				c-1.3,7.5-5.5,14.1-11.7,18.5C957,1831.5,951.3,1833.3,945.4,1833.3z M940.7,1831.1c7.1,1.3,14.3-0.4,20.2-4.5
				c5.8-4.1,9.7-10.2,10.9-17.3l76.6-434.4c2.6-14.6-7.2-28.6-21.9-31.2l-189.8-33.5c-7.1-1.3-14.3,0.4-20.2,4.5
				c-5.8,4.1-9.7,10.2-10.9,17.3l-76.6,434.4c-2.6,14.6,7.2,28.6,21.9,31.2L940.7,1831.1z"/>
		</g>
		<g>
			<path class="st0" d="M975.2,1351.9c-1.1,0-2.1-0.1-3.2-0.3l-86.6-15.3c-9.8-1.7-16.4-11.2-14.7-21l1.8,0.3
				c-1.6,8.9,4.4,17.4,13.3,18.9l86.6,15.3c4.3,0.8,8.7-0.2,12.3-2.7c3.5-2.5,5.9-6.2,6.6-10.5l1.8,0.3c-0.8,4.7-3.5,8.9-7.4,11.7
				C982.6,1350.7,978.9,1351.9,975.2,1351.9z"/>
		</g>
		<g class="st4">
			<path class="st0" d="M1026.8,1342.8l-27.2-4.8c-0.3,0.4-0.5,0.9-0.8,1.3c-15.6,26.4-11.1,59.6-6.9,90
				c4.2,30.4,6.7,64.3-11.7,88.9c-14.6,19.5-39.3,28.4-63,33.7c-23.7,5.3-48.6,8.2-70,19.8c-35.5,19.2-55.8,60.4-56.4,100.8
				c-0.6,40.4,16.3,79.5,40.3,111.9c8.7,11.8,18.4,22.9,28.6,33.4l80.7,14.2c15.1,2.7,29.6-7.4,32.2-22.6l76.6-434.4
				C1052,1359.9,1041.9,1345.5,1026.8,1342.8z"/>
		</g>
		<g class="st4">
			<path class="st0" d="M940.5,1832c15.1,2.7,29.6-7.4,32.2-22.6l3.5-19.9c-18.2-20.9-44-33.7-68-47.9c-25.2-15-50.5-34.1-59.7-62
				c-6.1-18.5-4.2-38.7-0.7-57.9c6-33,16.5-65.2,19.6-98.5c3.1-33.4-2.3-69.4-24.3-94.7c-13.3-15.3-30.8-24.8-50-30.8l-65,368.5
				c-2.7,15.1,7.4,29.6,22.6,32.2L940.5,1832z"/>
		</g>
	</g>
	<g class="st3">
		<g>
			<path class="st0" d="M1148.6,701.7c-2.1,0-4.2-0.2-6.3-0.6l-194.5-34.3c-19.4-3.4-32.3-22-28.9-41.3l77.4-439
				c1.6-9.3,6.8-17.5,14.5-23c7.8-5.6,17.4-7.7,26.9-6l194.5,34.3c19.4,3.4,32.3,22,28.9,41.3l-77.4,439c-1.6,9.3-6.8,17.5-14.5,23
				C1163,699.4,1155.9,701.7,1148.6,701.7z M1142.7,699.3c9,1.6,18-0.4,25.4-5.7c7.3-5.2,12.2-12.9,13.7-21.7l77.4-439
				c3.2-18.4-9.1-36-27.5-39.3l-194.5-34.3c-9-1.6-18,0.4-25.4,5.7c-7.3,5.2-12.2,12.9-13.7,21.7l-77.4,439
				c-3.2,18.4,9.1,36,27.5,39.3L1142.7,699.3z"/>
		</g>
		<g>
			<path class="st0" d="M1146.6,692c-1.7,0-3.4-0.1-5.1-0.4l-189.8-33.5c-15.6-2.7-26-17.7-23.3-33.3l76.6-434.4
				c1.3-7.5,5.5-14.1,11.7-18.5c6.3-4.5,14-6.2,21.6-4.9l189.8,33.5c15.6,2.7,26,17.7,23.3,33.3l-76.6,434.4
				c-1.3,7.5-5.5,14.1-11.7,18.5C1158.3,690.2,1152.5,692,1146.6,692z M1033.3,168.5c-5.5,0-10.9,1.7-15.5,5
				c-5.8,4.1-9.7,10.2-10.9,17.3l-76.6,434.4c-2.6,14.6,7.2,28.6,21.9,31.2l189.8,33.5c7.1,1.3,14.3-0.4,20.2-4.5
				c5.8-4.1,9.7-10.2,10.9-17.3l76.6-434.4c2.6-14.6-7.2-28.6-21.9-31.2L1038,168.9C1036.5,168.7,1034.9,168.5,1033.3,168.5z"/>
		</g>
		<g>
			<path class="st0" d="M1176.4,210.6c-1.1,0-2.1-0.1-3.2-0.3l-86.6-15.3c-9.8-1.7-16.4-11.2-14.7-21l1.8,0.3
				c-1.6,8.9,4.4,17.4,13.3,18.9l86.6,15.3c4.3,0.8,8.7-0.2,12.3-2.7c3.5-2.5,5.9-6.2,6.6-10.5l1.8,0.3c-0.8,4.7-3.5,8.9-7.4,11.7
				C1183.8,209.4,1180.2,210.6,1176.4,210.6z"/>
		</g>
		<g class="st4">
			<path class="st0" d="M1228,201.5l-27.2-4.8c-0.3,0.4-0.5,0.9-0.8,1.3c-15.6,26.4-11.1,59.6-6.9,90c4.2,30.4,6.7,64.3-11.7,88.9
				c-14.6,19.5-39.3,28.4-63,33.7c-23.7,5.3-48.6,8.2-70,19.8c-35.5,19.2-55.8,60.4-56.4,100.8c-0.6,40.4,16.3,79.5,40.3,111.9
				c8.7,11.8,18.4,22.9,28.6,33.4l80.7,14.2c15.1,2.7,29.6-7.4,32.2-22.6l76.6-434.4C1253.3,218.6,1243.1,204.2,1228,201.5z"/>
		</g>
		<g class="st4">
			<path class="st0" d="M1141.8,690.6c15.1,2.7,29.6-7.4,32.2-22.6l3.5-19.9c-18.2-20.9-44-33.7-68-47.9c-25.2-15-50.5-34.1-59.7-62
				c-6.1-18.5-4.2-38.7-0.7-57.9c6-33,16.5-65.2,19.6-98.5s-2.3-69.4-24.3-94.7c-13.3-15.3-30.8-24.8-50-30.8l-65,368.5
				c-2.7,15.1,7.4,29.6,22.6,32.2L1141.8,690.6z"/>
		</g>
	</g>
	<g class="st3">
		<g>
			<path class="st0" d="M682.2,1439.9c-2.1,0-4.2-0.2-6.3-0.6l-194.5-34.3c-19.4-3.4-32.3-22-28.9-41.3l77.4-439
				c1.6-9.3,6.8-17.5,14.5-23c7.8-5.6,17.4-7.7,26.9-6L765.7,930c19.4,3.4,32.3,22,28.9,41.3l-77.4,439c-1.6,9.3-6.8,17.5-14.5,23
				C696.6,1437.7,689.5,1439.9,682.2,1439.9z M676.3,1437.6c9,1.6,18-0.4,25.4-5.7c7.3-5.2,12.2-12.9,13.7-21.7l77.4-439
				c3.2-18.4-9.1-36-27.5-39.3l-194.5-34.3c-9-1.6-18,0.4-25.4,5.7c-7.3,5.2-12.2,12.9-13.7,21.7l-77.4,439
				c-3.2,18.4,9.1,36,27.5,39.3L676.3,1437.6z"/>
		</g>
		<g>
			<path class="st0" d="M680.2,1430.2c-1.7,0-3.4-0.1-5.1-0.4l-189.8-33.5c-15.6-2.7-26-17.7-23.3-33.3l76.6-434.3
				c1.3-7.5,5.5-14.1,11.7-18.5c6.3-4.5,14-6.2,21.6-4.9l189.8,33.5c15.6,2.7,26,17.7,23.3,33.3l-76.6,434.4
				c-1.3,7.5-5.5,14.1-11.7,18.5C691.9,1428.4,686.1,1430.2,680.2,1430.2z M675.5,1428c7.1,1.3,14.3-0.4,20.2-4.5
				c5.8-4.1,9.7-10.2,10.9-17.3l76.6-434.4c2.6-14.6-7.2-28.6-21.9-31.2l-189.8-33.5c-7.1-1.3-14.3,0.4-20.2,4.5
				c-5.8,4.1-9.7,10.2-10.9,17.3l-76.6,434.3c-2.6,14.6,7.2,28.6,21.9,31.2L675.5,1428z"/>
		</g>
		<g>
			<path class="st0" d="M710,948.8c-1.1,0-2.1-0.1-3.2-0.3l-86.6-15.3c-9.8-1.7-16.4-11.2-14.7-21l1.8,0.3
				c-1.6,8.9,4.4,17.4,13.3,18.9l86.6,15.3c4.3,0.8,8.7-0.2,12.3-2.7c3.5-2.5,5.9-6.2,6.6-10.5l1.8,0.3c-0.8,4.7-3.5,8.9-7.4,11.7
				C717.4,947.6,713.8,948.8,710,948.8z"/>
		</g>
		<g class="st4">
			<path class="st0" d="M761.6,939.7l-27.2-4.8c-0.3,0.4-0.5,0.9-0.8,1.3c-15.6,26.4-11.1,59.6-6.9,90c4.2,30.4,6.7,64.3-11.7,88.9
				c-14.6,19.5-39.3,28.4-63,33.7c-23.7,5.3-48.6,8.2-70,19.8c-35.5,19.2-55.8,60.4-56.4,100.8c-0.6,40.4,16.3,79.5,40.3,111.9
				c8.7,11.8,18.4,22.9,28.6,33.4l80.7,14.2c15.1,2.7,29.6-7.4,32.2-22.6L784.2,972C786.8,956.8,776.7,942.4,761.6,939.7z"/>
		</g>
		<g class="st4">
			<path class="st0" d="M675.3,1428.9c15.1,2.7,29.6-7.4,32.2-22.6l3.5-19.9c-18.2-20.9-44-33.7-68-47.9c-25.2-15-50.5-34.1-59.7-62
				c-6.1-18.5-4.2-38.7-0.7-57.9c6-33,16.5-65.2,19.6-98.5c3.1-33.4-2.3-69.4-24.3-94.7c-13.3-15.3-30.8-24.8-50-30.8l-65,368.5
				c-2.7,15.1,7.4,29.6,22.6,32.2L675.3,1428.9z"/>
		</g>
	</g>
	<g class="st3">
		<g>
			<path class="st0" d="M1435,984.3c-2.1,0-4.2-0.2-6.3-0.6l-194.5-34.3c-19.4-3.4-32.3-22-28.9-41.3l77.4-439
				c1.6-9.3,6.8-17.5,14.5-23c7.8-5.6,17.4-7.7,26.9-6l194.5,34.3c19.4,3.4,32.3,22,28.9,41.3l-77.4,439c-1.6,9.3-6.8,17.5-14.5,23
				C1449.5,982,1442.3,984.3,1435,984.3z M1429.1,981.9c9,1.6,18-0.4,25.4-5.7c7.3-5.2,12.2-12.9,13.7-21.7l77.4-439
				c3.2-18.4-9.1-36-27.5-39.3l-194.5-34.3c-9-1.6-18,0.4-25.4,5.7c-7.3,5.2-12.2,12.9-13.7,21.7l-77.4,439
				c-3.2,18.4,9.1,36,27.5,39.3L1429.1,981.9z"/>
		</g>
		<g>
			<path class="st0" d="M1433.1,974.6c-1.7,0-3.4-0.1-5.1-0.4l-189.8-33.5c-15.6-2.7-26-17.7-23.3-33.3l76.6-434.4
				c1.3-7.5,5.5-14.1,11.7-18.5c6.3-4.5,14-6.2,21.6-4.9l189.8,33.5c15.6,2.7,26,17.7,23.3,33.3l-76.6,434.4
				c-1.3,7.5-5.5,14.1-11.7,18.5C1444.7,972.7,1439,974.6,1433.1,974.6z M1428.4,972.3c7.1,1.3,14.3-0.4,20.2-4.5
				c5.8-4.1,9.7-10.2,10.9-17.3l76.6-434.4c2.6-14.6-7.2-28.6-21.9-31.2l-189.8-33.5c-7.1-1.3-14.3,0.4-20.2,4.5
				c-5.8,4.1-9.7,10.2-10.9,17.3l-76.6,434.4c-2.6,14.6,7.2,28.6,21.9,31.2L1428.4,972.3z"/>
		</g>
		<g>
			<path class="st0" d="M1462.9,493.1c-1.1,0-2.1-0.1-3.2-0.3l-86.6-15.3c-9.8-1.7-16.4-11.2-14.7-21l1.8,0.3
				c-1.6,8.9,4.4,17.4,13.3,18.9l86.6,15.3c4.3,0.8,8.7-0.2,12.3-2.7c3.5-2.5,5.9-6.2,6.6-10.5l1.8,0.3c-0.8,4.7-3.5,8.9-7.4,11.7
				C1470.2,492,1466.6,493.1,1462.9,493.1z"/>
		</g>
		<g class="st4">
			<path class="st0" d="M1514.4,484.1l-27.2-4.8c-0.3,0.4-0.5,0.9-0.8,1.3c-15.6,26.4-11.1,59.6-6.9,90c4.2,30.4,6.7,64.3-11.7,88.9
				c-14.6,19.5-39.3,28.4-63,33.7c-23.7,5.3-48.6,8.2-70,19.8c-35.5,19.2-55.8,60.4-56.4,100.8c-0.6,40.4,16.3,79.5,40.3,111.9
				c8.7,11.8,18.4,22.9,28.6,33.4l80.7,14.2c15.1,2.7,29.6-7.4,32.2-22.6l76.6-434.4C1539.7,501.2,1529.6,486.7,1514.4,484.1z"/>
		</g>
		<g class="st4">
			<path class="st0" d="M1428.2,973.2c15.1,2.7,29.6-7.4,32.2-22.6l3.5-19.9c-18.2-20.9-44-33.7-68-47.9c-25.2-15-50.5-34.1-59.7-62
				c-6.1-18.5-4.2-38.7-0.7-57.9c6-33,16.5-65.2,19.6-98.5c3.1-33.4-2.3-69.4-24.3-94.7c-13.3-15.3-30.8-24.8-50-30.8l-65,368.5
				c-2.7,15.1,7.4,29.6,22.6,32.2L1428.2,973.2z"/>
		</g>
	</g>
	<g class="st3">
		<g>
			<path class="st0" d="M782.8,869.3c-2.1,0-4.2-0.2-6.3-0.6L582,834.4c-19.4-3.4-32.3-22-28.9-41.3l77.4-439
				c1.6-9.3,6.8-17.5,14.5-23c7.8-5.6,17.4-7.7,26.9-6l194.5,34.3c19.4,3.4,32.3,22,28.9,41.3l-77.4,439c-1.6,9.3-6.8,17.5-14.5,23
				C797.2,867,790.1,869.3,782.8,869.3z M776.9,866.9c9,1.6,18-0.4,25.4-5.7c7.3-5.2,12.2-12.9,13.7-21.7l77.4-439
				c3.2-18.4-9.1-36-27.5-39.3l-194.5-34.3c-9-1.6-18,0.4-25.4,5.7c-7.3,5.2-12.2,12.9-13.7,21.7l-77.4,439
				c-3.2,18.4,9.1,36,27.5,39.3L776.9,866.9z"/>
		</g>
		<g>
			<path class="st0" d="M780.8,859.6c-1.7,0-3.4-0.1-5.1-0.4L586,825.6c-15.6-2.7-26-17.7-23.3-33.3L639.3,358
				c1.3-7.5,5.5-14.1,11.7-18.5c6.3-4.5,14-6.2,21.6-4.9l189.8,33.5c15.6,2.7,26,17.7,23.3,33.3l-76.6,434.4
				c-1.3,7.5-5.5,14.1-11.7,18.5C792.5,857.7,786.7,859.6,780.8,859.6z M776.2,857.3c7.1,1.3,14.3-0.4,20.2-4.5
				c5.8-4.1,9.7-10.2,10.9-17.3l76.6-434.4c2.6-14.6-7.2-28.6-21.9-31.2l-189.8-33.5c-7.1-1.3-14.3,0.4-20.2,4.5
				c-5.8,4.1-9.7,10.2-10.9,17.3l-76.6,434.3c-2.6,14.6,7.2,28.6,21.9,31.2L776.2,857.3z"/>
		</g>
		<g>
			<path class="st0" d="M810.6,378.1c-1.1,0-2.1-0.1-3.2-0.3l-86.6-15.3c-9.8-1.7-16.4-11.2-14.7-21l1.8,0.3
				c-1.6,8.9,4.4,17.4,13.3,18.9l86.6,15.3c4.3,0.8,8.7-0.2,12.3-2.7c3.5-2.5,5.9-6.2,6.6-10.5l1.8,0.3c-0.8,4.7-3.5,8.9-7.4,11.7
				C818,377,814.4,378.1,810.6,378.1z"/>
		</g>
		<g class="st4">
			<path class="st0" d="M862.2,369.1l-27.2-4.8c-0.3,0.4-0.5,0.9-0.8,1.3c-15.6,26.4-11.1,59.6-6.9,90c4.2,30.4,6.7,64.3-11.7,88.9
				c-14.6,19.5-39.3,28.4-63,33.7c-23.7,5.3-48.6,8.2-70,19.8c-35.5,19.2-55.8,60.4-56.4,100.8c-0.6,40.4,16.3,79.5,40.3,111.9
				c8.7,11.8,18.4,22.9,28.6,33.4l80.7,14.2c15.1,2.7,29.6-7.4,32.2-22.6l76.6-434.4C887.5,386.1,877.4,371.7,862.2,369.1z"/>
		</g>
		<g class="st4">
			<path class="st0" d="M776,858.2c15.1,2.7,29.6-7.4,32.2-22.6l3.5-19.9c-18.2-20.9-44-33.7-68-47.9c-25.2-15-50.5-34.1-59.7-62
				c-6.1-18.5-4.2-38.7-0.7-57.9c6-33,16.5-65.2,19.6-98.5c3.1-33.4-2.3-69.4-24.3-94.7c-13.3-15.3-30.8-24.8-50-30.8l-65,368.5
				c-2.7,15.1,7.4,29.6,22.6,32.2L776,858.2z"/>
		</g>
	</g>
	<path class="st5" d="M989.4,1158.9c-11.2-9.1-25.2-15.2-38.7-21c-21.1-9.2-40.9-17.8-51-37c-12.2-23.2-2.6-51.3,9.3-68.3
		c11.3-16.1,26.9-28.9,42-41.3c3.6-2.9,7.3-6,10.9-9c17.7-14.9,36.7-33.5,44-58.1c5.2-17.8,3.6-37.4-4.9-56.7
		c-7.7-17.7-20.8-34-36.7-46c-19-14.4-41.2-23.6-64.2-30.4l-0.3,1.7c22.8,6.8,44.7,15.9,63.5,30.1c15.7,11.9,28.6,28,36.2,45.4
		c8.3,18.9,9.9,38.1,4.8,55.6c-7.1,24.2-25.9,42.5-43.4,57.3c-3.6,3-7.3,6.1-10.9,9c-15.2,12.4-30.9,25.3-42.3,41.6
		c-12.2,17.4-22,46.2-9.5,70.1c10.4,19.7,31.5,28.9,51.9,37.7c13.4,5.8,27.2,11.8,38.3,20.8c11.2,9.1,19.9,22.2,24.2,36.8
		c4.4,14.7,4.4,30.3,0,44.1c-1.5,4.8-3.6,9.5-6.2,14l1.8,0.3c2.5-4.4,4.5-9,6-13.8C1023.6,1212.4,1013.4,1178.3,989.4,1158.9z"/>
	<path class="st5" d="M1085.7,1169.1l0.3-1.9c-17.1-9.7-31.3-24.8-38.7-42.8c-13.5-32.8-4.4-74.1,21.6-98.2c3-2.8,6.3-5.5,9.6-8.1
		c7.3-5.9,14.8-11.9,19.7-20.1c11.9-19.9,4.2-45.9-7-63.6c-5.4-8.5-11.9-16.5-18.1-24.2c-7.5-9.2-15.2-18.8-21.1-29.3
		c-13.8-24.6-16.9-55.3-8.4-82.2c4.4-13.8,11.8-26.7,21.5-37.6l-2-0.3c-9.5,10.9-16.8,23.7-21.2,37.4c-8.6,27.3-5.4,58.6,8.5,83.6
		c5.9,10.6,13.7,20.2,21.3,29.5c6.2,7.7,12.7,15.6,18,24c10.9,17.3,18.5,42.5,7,61.8c-4.7,7.9-12.1,13.9-19.3,19.6
		c-3.2,2.6-6.6,5.3-9.6,8.1c-12.9,11.9-22.2,28.5-26.2,46.7c-4,18.2-2.5,37.1,4.2,53.4c6.7,16.3,19,30.8,34.7,40.9
		C1082.1,1167,1083.9,1168.1,1085.7,1169.1z"/>
	<g>
		
			<linearGradient id="SVGID_2_" gradientUnits="userSpaceOnUse" x1="713.9835" y1="1153.6489" x2="929.1971" y2="1153.6489" gradientTransform="matrix(0.9848 0.1736 -0.1736 0.9848 429.9436 -199.7007)">
			<stop  offset="0" style="stop-color:#FD7D50"/>
			<stop  offset="0.9986" style="stop-color:#FDE375"/>
		</linearGradient>
		<path class="st6" d="M1147.1,1049.1l-199.8-35.2c-3.4-0.6-6.6,1.6-7.1,5l-11.1,63c-0.6,3.4,1.6,6.6,5,7.1l20.1,3.5l-16.9,14.2
			c-0.3,0.3-0.5,0.7-0.6,1.1c-0.2,1.2,0.6,2.3,1.8,2.6c0.4,0.1,0.8,0,1.1-0.1l43.2-12.8l151.1,26.6c3.4,0.6,6.6-1.6,7.1-5l11.1-63
			C1152.7,1052.9,1150.4,1049.7,1147.1,1049.1z"/>
		<path class="st7" d="M1130.7,1071l-129.5-22.8c-1.4-0.2-2.3-1.6-2.1-3l0.6-3.2c0.2-1.4,1.6-2.3,3-2.1l129.5,22.8
			c1.4,0.2,2.3,1.6,2.1,3l-0.6,3.2C1133.4,1070.3,1132.1,1071.3,1130.7,1071z"/>
		<path class="st7" d="M986.2,1045.5l-31-5.5c-1.4-0.2-2.3-1.6-2.1-3l0.6-3.2c0.2-1.4,1.6-2.3,3-2.1l31,5.5c1.4,0.2,2.3,1.6,2.1,3
			l-0.6,3.2C988.9,1044.8,987.6,1045.8,986.2,1045.5z"/>
		<path class="st7" d="M1127.6,1088.5l-38.4-6.8c-1.4-0.2-2.3-1.6-2.1-3l0.6-3.2c0.2-1.4,1.6-2.3,3-2.1l38.4,6.8
			c1.4,0.2,2.3,1.6,2.1,3l-0.6,3.2C1130.3,1087.8,1129,1088.8,1127.6,1088.5z"/>
		<path class="st7" d="M1074.2,1079.1l-122.1-21.5c-1.4-0.2-2.3-1.6-2.1-3l0.6-3.2c0.2-1.4,1.6-2.3,3-2.1l122.1,21.5
			c1.4,0.2,2.3,1.6,2.1,3l-0.6,3.2C1076.9,1078.4,1075.6,1079.4,1074.2,1079.1z"/>
		<path class="st7" d="M1124.5,1106l-75.3-13.3c-1.4-0.2-2.3-1.6-2.1-3l0.6-3.2c0.2-1.4,1.6-2.3,3-2.1l75.3,13.3
			c1.4,0.2,2.3,1.6,2.1,3l-0.6,3.2C1127.2,1105.3,1125.9,1106.3,1124.5,1106z"/>
		<path class="st7" d="M1034.2,1090.1l-85.2-15c-1.4-0.2-2.3-1.6-2.1-3l0.6-3.2c0.2-1.4,1.6-2.3,3-2.1l85.2,15
			c1.4,0.2,2.3,1.6,2.1,3l-0.6,3.2C1036.9,1089.4,1035.6,1090.4,1034.2,1090.1z"/>
		<path class="st0" d="M989.3,1012.4l-35.3-6.2c-1.2-0.2-2.3,0.6-2.5,1.7l0,0.3c-0.2,1.2,0.6,2.3,1.7,2.5l35.3,6.2
			c1.2,0.2,2.3-0.6,2.5-1.7l0-0.3C991.2,1013.7,990.4,1012.6,989.3,1012.4z"/>
	</g>
	<g>
		
			<linearGradient id="SVGID_3_" gradientUnits="userSpaceOnUse" x1="2367.4185" y1="1034.351" x2="2582.6318" y2="1034.351" gradientTransform="matrix(-0.9848 -0.1736 -0.1736 0.9848 3553.4619 351.733)">
			<stop  offset="0" style="stop-color:#2F8ADD"/>
			<stop  offset="0.9986" style="stop-color:#A6FFF4"/>
		</linearGradient>
		<path class="st8" d="M845,875.5l199.8,35.2c3.4,0.6,5.6,3.8,5,7.1l-11.1,63c-0.6,3.4-3.8,5.6-7.1,5l-20.1-3.5l11,19.1
			c0.2,0.4,0.2,0.8,0.2,1.3c-0.2,1.2-1.4,2-2.6,1.8c-0.4-0.1-0.7-0.2-1-0.5l-36.2-26.8l-151.1-26.6c-3.4-0.6-5.6-3.8-5-7.1l11.1-63
			C838.4,877.1,841.6,874.9,845,875.5z"/>
		<path class="st7" d="M1028.4,932.7l-78.5-13.8c-1.4-0.2-2.3-1.6-2.1-3l0.6-3.2c0.2-1.4,1.6-2.3,3-2.1l78.5,13.8
			c1.4,0.2,2.3,1.6,2.1,3l-0.6,3.2C1031.1,932,1029.8,932.9,1028.4,932.7z"/>
		<path class="st7" d="M934.9,916.2l-82-14.5c-1.4-0.2-2.3-1.6-2.1-3l0.6-3.2c0.2-1.4,1.6-2.3,3-2.1l82,14.5c1.4,0.2,2.3,1.6,2.1,3
			l-0.6,3.2C937.6,915.5,936.3,916.4,934.9,916.2z"/>
		<path class="st7" d="M1025.3,950.2l-113.6-20c-1.4-0.2-2.3-1.6-2.1-3l0.6-3.2c0.2-1.4,1.6-2.3,3-2.1l113.6,20
			c1.4,0.2,2.3,1.6,2.1,3l-0.6,3.2C1028,949.5,1026.7,950.4,1025.3,950.2z"/>
		<path class="st7" d="M896.7,927.5l-46.9-8.3c-1.4-0.2-2.3-1.6-2.1-3l0.6-3.2c0.2-1.4,1.6-2.3,3-2.1l46.9,8.3
			c1.4,0.2,2.3,1.6,2.1,3l-0.6,3.2C899.4,926.8,898.1,927.7,896.7,927.5z"/>
		<path class="st7" d="M1022.2,967.7l-31.9-5.6c-1.4-0.2-2.3-1.6-2.1-3l0.6-3.2c0.2-1.4,1.6-2.3,3-2.1l31.9,5.6
			c1.4,0.2,2.3,1.6,2.1,3l-0.6,3.2C1025,967,1023.6,967.9,1022.2,967.7z"/>
		<path class="st7" d="M975.4,959.4l-128.7-22.7c-1.4-0.2-2.3-1.6-2.1-3l0.6-3.2c0.2-1.4,1.6-2.3,3-2.1l128.7,22.7
			c1.4,0.2,2.3,1.6,2.1,3l-0.6,3.2C978.1,958.7,976.8,959.7,975.4,959.4z"/>
		<path class="st0" d="M1005.8,895l35.3,6.2c1.2,0.2,1.9,1.3,1.7,2.5l0,0.3c-0.2,1.2-1.3,1.9-2.5,1.7l-35.3-6.2
			c-1.2-0.2-1.9-1.3-1.7-2.5l0-0.3C1003.5,895.5,1004.6,894.8,1005.8,895z"/>
	</g>
	<g>
		
			<linearGradient id="SVGID_4_" gradientUnits="userSpaceOnUse" x1="2367.4294" y1="1271.3256" x2="2582.6431" y2="1271.3256" gradientTransform="matrix(-0.9848 -0.1736 -0.1736 0.9848 3553.4619 351.733)">
			<stop  offset="0" style="stop-color:#2F8ADD"/>
			<stop  offset="0.9986" style="stop-color:#A6FFF4"/>
		</linearGradient>
		<path class="st9" d="M803.8,1108.9l199.8,35.2c3.4,0.6,5.6,3.8,5,7.1l-11.1,63c-0.6,3.4-3.8,5.6-7.1,5l-20.1-3.5l11,19.1
			c0.2,0.4,0.2,0.8,0.2,1.3c-0.2,1.2-1.4,2-2.6,1.8c-0.4-0.1-0.7-0.2-1-0.5l-36.2-26.8L790.6,1184c-3.4-0.6-5.6-3.8-5-7.1l11.1-63
			C797.3,1110.5,800.5,1108.3,803.8,1108.9z"/>
		<path class="st7" d="M987.3,1166l-122.1-21.5c-1.4-0.2-2.3-1.6-2.1-3l0.6-3.2c0.2-1.4,1.6-2.3,3-2.1l122.1,21.5
			c1.4,0.2,2.3,1.6,2.1,3l-0.6,3.2C990,1165.4,988.6,1166.3,987.3,1166z"/>
		<path class="st7" d="M850.2,1141.9l-38.5-6.8c-1.4-0.2-2.3-1.6-2.1-3l0.6-3.2c0.2-1.4,1.6-2.3,3-2.1l38.5,6.8
			c1.4,0.2,2.3,1.6,2.1,3l-0.6,3.2C852.9,1141.2,851.6,1142.1,850.2,1141.9z"/>
		<path class="st7" d="M984.2,1183.5l-72-12.7c-1.4-0.2-2.3-1.6-2.1-3l0.6-3.2c0.2-1.4,1.6-2.3,3-2.1l72,12.7c1.4,0.2,2.3,1.6,2.1,3
			l-0.6,3.2C986.9,1182.9,985.6,1183.8,984.2,1183.5z"/>
		<path class="st7" d="M897.2,1168.2l-88.5-15.6c-1.4-0.2-2.3-1.6-2.1-3l0.6-3.2c0.2-1.4,1.6-2.3,3-2.1l88.5,15.6
			c1.4,0.2,2.3,1.6,2.1,3l-0.6,3.2C899.9,1167.5,898.6,1168.5,897.2,1168.2z"/>
		<path class="st7" d="M981.1,1201.1l-90.7-16c-1.4-0.2-2.3-1.6-2.1-3l0.6-3.2c0.2-1.4,1.6-2.3,3-2.1l90.7,16c1.4,0.2,2.3,1.6,2.1,3
			l-0.6,3.2C983.8,1200.4,982.5,1201.3,981.1,1201.1z"/>
		<path class="st7" d="M875.4,1182.4l-69.9-12.3c-1.4-0.2-2.3-1.6-2.1-3l0.6-3.2c0.2-1.4,1.6-2.3,3-2.1l69.9,12.3
			c1.4,0.2,2.3,1.6,2.1,3l-0.6,3.2C878.2,1181.7,876.8,1182.7,875.4,1182.4z"/>
		<path class="st0" d="M964.7,1128.3l35.3,6.2c1.2,0.2,1.9,1.3,1.7,2.5l0,0.3c-0.2,1.2-1.3,1.9-2.5,1.7l-35.3-6.2
			c-1.2-0.2-1.9-1.3-1.7-2.5l0-0.3C962.4,1128.9,963.5,1128.1,964.7,1128.3z"/>
	</g>
	<g>
		
			<linearGradient id="SVGID_5_" gradientUnits="userSpaceOnUse" x1="713.9944" y1="916.6743" x2="929.2079" y2="916.6743" gradientTransform="matrix(0.9848 0.1736 -0.1736 0.9848 429.9436 -199.7007)">
			<stop  offset="0" style="stop-color:#FD7D50"/>
			<stop  offset="0.9986" style="stop-color:#FDE375"/>
		</linearGradient>
		<path class="st10" d="M1188.2,815.7l-199.8-35.2c-3.4-0.6-6.6,1.6-7.1,5l-11.1,63c-0.6,3.4,1.6,6.6,5,7.1l20.1,3.5l-16.9,14.2
			c-0.3,0.3-0.5,0.7-0.6,1.1c-0.2,1.2,0.6,2.3,1.8,2.6c0.4,0.1,0.8,0,1.1-0.1l43.2-12.8l151.1,26.6c3.4,0.6,6.6-1.6,7.1-5l11.1-63
			C1193.8,819.5,1191.6,816.3,1188.2,815.7z"/>
		<path class="st7" d="M1171.8,837.6l-106.3-18.8c-1.4-0.2-2.3-1.6-2.1-3l0.6-3.2c0.2-1.4,1.6-2.3,3-2.1l106.3,18.8
			c1.4,0.2,2.3,1.6,2.1,3l-0.6,3.2C1174.6,837,1173.2,837.9,1171.8,837.6z"/>
		<path class="st7" d="M1050.5,816.3l-54.2-9.6c-1.4-0.2-2.3-1.6-2.1-3l0.6-3.2c0.2-1.4,1.6-2.3,3-2.1l54.2,9.6
			c1.4,0.2,2.3,1.6,2.1,3l-0.6,3.2C1053.2,815.6,1051.9,816.5,1050.5,816.3z"/>
		<path class="st7" d="M1168.7,855.2l-73.6-13c-1.4-0.2-2.3-1.6-2.1-3l0.6-3.2c0.2-1.4,1.6-2.3,3-2.1l73.6,13c1.4,0.2,2.3,1.6,2.1,3
			l-0.6,3.2C1171.5,854.5,1170.1,855.4,1168.7,855.2z"/>
		<path class="st7" d="M1080.2,839.5l-87-15.3c-1.4-0.2-2.3-1.6-2.1-3l0.6-3.2c0.2-1.4,1.6-2.3,3-2.1l87,15.3c1.4,0.2,2.3,1.6,2.1,3
			l-0.6,3.2C1082.9,838.8,1081.6,839.8,1080.2,839.5z"/>
		<path class="st7" d="M1165.7,872.7l-31.9-5.6c-1.4-0.2-2.3-1.6-2.1-3l0.6-3.2c0.2-1.4,1.6-2.3,3-2.1l31.9,5.6
			c1.4,0.2,2.3,1.6,2.1,3l-0.6,3.2C1168.4,872,1167.1,872.9,1165.7,872.7z"/>
		<path class="st7" d="M1118.8,864.4l-128.7-22.7c-1.4-0.2-2.3-1.6-2.1-3l0.6-3.2c0.2-1.4,1.6-2.3,3-2.1l128.7,22.7
			c1.4,0.2,2.3,1.6,2.1,3l-0.6,3.2C1121.5,863.7,1120.2,864.6,1118.8,864.4z"/>
		<path class="st0" d="M1030.4,779l-35.3-6.2c-1.2-0.2-2.3,0.6-2.5,1.7l0,0.3c-0.2,1.2,0.6,2.3,1.7,2.5l35.3,6.2
			c1.2,0.2,2.3-0.6,2.5-1.7l0-0.3C1032.4,780.3,1031.6,779.2,1030.4,779z"/>
	</g>
</g>
</svg>
