<?xml version="1.0" encoding="utf-8"?>
<!-- Generator: Adobe Illustrator 24.2.1, SVG Export Plug-In . SVG Version: 6.00 Build 0)  -->
<svg version="1.1" id="Warstwa_1" xmlns="http://www.w3.org/2000/svg" xmlns:xlink="http://www.w3.org/1999/xlink" x="0px" y="0px"
	 viewBox="0 0 1100 1692.1" style="enable-background:new 0 0 1100 1692.1;" xml:space="preserve">
<style type="text/css">
	.st0{fill:#FFFFFF;}
	.st1{fill:url(#SVGID_1_);}
	.st2{opacity:8.000000e-02;fill:#FFFFFF;enable-background:new    ;}
	.st3{opacity:0.3;}
	.st4{opacity:0.2;}
	.st5{opacity:0.2;fill:#FFFFFF;enable-background:new    ;}
	.st6{fill:url(#SVGID_2_);}
	.st7{opacity:0.7;fill:#FFFFFF;enable-background:new    ;}
	.st8{fill:url(#SVGID_3_);}
	.st9{fill:url(#SVGID_4_);}
	.st10{fill:url(#SVGID_5_);}
</style>
<g>
	<path class="st0" d="M592,1118l-195.2-34.4c-19-3.3-31.6-21.5-28.3-40.4l77.7-440.6c3.3-19,21.5-31.6,40.4-28.3l195.2,34.4
		c19,3.3,31.6,21.5,28.3,40.4l-77.7,440.6C629.1,1108.6,611,1121.3,592,1118z"/>
	
		<linearGradient id="SVGID_1_" gradientUnits="userSpaceOnUse" x1="164.4215" y1="682.8263" x2="413.7043" y2="682.8263" gradientTransform="matrix(0.9848 0.1736 0.1736 -0.9848 136.054 1468.2993)">
		<stop  offset="0" style="stop-color:#A042F2"/>
		<stop  offset="0.9986" style="stop-color:#4E00FF"/>
	</linearGradient>
	<path class="st1" d="M591.2,1108.3l-190.5-33.6c-15.2-2.7-25.3-17.2-22.7-32.3l76.9-436c2.7-15.2,17.2-25.3,32.3-22.7l190.5,33.6
		c15.2,2.7,25.3,17.2,22.7,32.3l-76.9,436C621,1100.9,606.5,1111,591.2,1108.3z"/>
	<path class="st0" d="M623.1,625.3l-86.9-15.4c-9.4-1.7-15.7-10.6-14-20.1l0,0l0.9-5.2L644,606l-0.9,5.2l0,0
		C641.4,620.7,632.5,627,623.1,625.3z"/>
	<path class="st2" d="M677.9,617.5l-27.3-4.8c-0.3,0.4-0.5,0.9-0.8,1.3c-15.7,26.5-11.1,59.8-6.9,90.3s6.7,64.5-11.7,89.2
		c-14.7,19.6-39.4,28.5-63.2,33.8c-23.8,5.3-48.8,8.2-70.2,19.9c-35.6,19.3-56,60.6-56.6,101.2c-0.6,40.5,16.4,79.8,40.4,112.3
		c8.7,11.8,18.5,23,28.7,33.5l81,14.3c15.2,2.7,29.7-7.4,32.3-22.7l76.9-436C703.1,634.6,693,620.1,677.9,617.5z"/>
	<path class="st2" d="M591.2,1108.3c15.2,2.7,29.7-7.4,32.3-22.7l3.5-20c-18.3-21-44.2-33.8-68.2-48.1
		c-25.3-15.1-50.7-34.2-59.9-62.2c-6.1-18.6-4.2-38.8-0.7-58.1c6-33.1,16.6-65.4,19.7-98.9c3.1-33.5-2.3-69.6-24.4-95
		c-13.3-15.4-30.9-24.9-50.2-30.9l-65.2,369.8c-2.7,15.2,7.4,29.7,22.7,32.3L591.2,1108.3z"/>
	<g class="st3">
		<g>
			<path class="st0" d="M885.6,1403c-2.1,0-4.2-0.2-6.3-0.6l-195.2-34.4c-19.5-3.4-32.4-22.1-29-41.4l77.7-440.6
				c1.6-9.3,6.8-17.6,14.6-23.1c7.8-5.6,17.5-7.7,27-6l195.2,34.4c19.5,3.4,32.4,22.1,29,41.4l-77.7,440.6
				c-1.6,9.3-6.8,17.6-14.6,23.1C900,1400.8,892.9,1403,885.6,1403z M879.7,1400.7c9,1.6,18.1-0.4,25.5-5.7
				c7.3-5.2,12.2-12.9,13.7-21.8l77.7-440.6c3.2-18.5-9.1-36.1-27.6-39.4l-195.2-34.4c-9-1.6-18.1,0.4-25.5,5.7
				c-7.3,5.2-12.2,12.9-13.7,21.8l-77.7,440.6c-3.2,18.5,9.1,36.1,27.6,39.4L879.7,1400.7z"/>
		</g>
		<g>
			<path class="st0" d="M883.6,1393.2c-1.7,0-3.4-0.1-5.1-0.4L688,1359.2c-15.7-2.7-26.1-17.8-23.4-33.4l76.9-435.9
				c1.3-7.5,5.5-14.2,11.7-18.6c6.3-4.5,14-6.2,21.7-4.9l190.5,33.6c15.7,2.7,26.1,17.8,23.4,33.4l-76.9,435.9
				c-1.3,7.5-5.5,14.2-11.7,18.6C895.3,1391.4,889.5,1393.2,883.6,1393.2z M879,1391c7.1,1.3,14.4-0.4,20.3-4.5
				c5.8-4.1,9.7-10.2,10.9-17.4l76.9-435.9c2.6-14.7-7.2-28.7-22-31.3l-190.5-33.6c-7.1-1.3-14.4,0.4-20.3,4.5
				c-5.8,4.1-9.7,10.2-10.9,17.4l-76.9,436c-2.6,14.7,7.2,28.7,22,31.3L879,1391z"/>
		</g>
		<g>
			<path class="st0" d="M913.5,910.1c-1.1,0-2.1-0.1-3.2-0.3l-86.9-15.4c-9.8-1.7-16.5-11.2-14.8-21.1l1.8,0.3
				c-1.6,8.9,4.4,17.5,13.3,19l86.9,15.4c4.3,0.8,8.7-0.2,12.3-2.7c3.5-2.5,5.9-6.2,6.6-10.5l1.8,0.3c-0.8,4.7-3.5,8.9-7.4,11.7
				C920.9,908.9,917.3,910.1,913.5,910.1z"/>
		</g>
		<g class="st4">
			<path class="st0" d="M965.3,901l-27.3-4.8c-0.3,0.4-0.5,0.9-0.8,1.3c-15.7,26.5-11.1,59.8-6.9,90.3s6.7,64.5-11.7,89.2
				c-14.7,19.6-39.4,28.5-63.2,33.8c-23.8,5.3-48.8,8.2-70.2,19.9c-35.6,19.3-56,60.6-56.6,101.2c-0.6,40.5,16.4,79.8,40.4,112.3
				c8.7,11.8,18.5,23,28.7,33.5l81,14.3c15.2,2.7,29.7-7.4,32.3-22.7l76.9-436C990.7,918.1,980.4,903.7,965.3,901z"/>
		</g>
		<g class="st4">
			<path class="st0" d="M878.8,1391.9c15.2,2.7,29.7-7.4,32.3-22.7l3.5-20c-18.3-21-44.2-33.8-68.2-48.1
				c-25.3-15.1-50.7-34.2-59.9-62.2c-6.1-18.6-4.2-38.8-0.7-58.1c6-33.1,16.6-65.4,19.7-98.9c3.1-33.5-2.3-69.6-24.4-95
				c-13.3-15.4-30.9-24.9-50.2-30.9l-65.2,369.8c-2.7,15.2,7.4,29.7,22.7,32.3L878.8,1391.9z"/>
		</g>
	</g>
	<g class="st3">
		<g>
			<path class="st0" d="M497.1,1692.1c-2.1,0-4.2-0.2-6.3-0.6l-195.2-34.4c-19.5-3.4-32.4-22.1-29-41.4l77.7-440.6
				c1.6-9.3,6.8-17.6,14.6-23.1c7.8-5.6,17.5-7.7,27-6l195.2,34.4c19.5,3.4,32.4,22.1,29,41.4l-77.7,440.6
				c-1.6,9.3-6.8,17.6-14.6,23.1C511.7,1689.9,504.5,1692.1,497.1,1692.1z M491.2,1689.8c9,1.6,18.1-0.4,25.5-5.7
				c7.3-5.2,12.2-12.9,13.7-21.8l77.7-440.6c3.2-18.5-9.1-36.1-27.6-39.4l-195.2-34.4c-9-1.6-18.1,0.4-25.5,5.7
				c-7.3,5.2-12.2,12.9-13.7,21.8l-77.7,440.6c-3.2,18.5,9.1,36.1,27.6,39.4L491.2,1689.8z"/>
		</g>
		<g>
			<path class="st0" d="M495.2,1682.4c-1.7,0-3.4-0.1-5.1-0.4l-190.5-33.6c-15.7-2.7-26.1-17.8-23.4-33.4l76.9-436
				c1.3-7.5,5.5-14.2,11.7-18.6c6.3-4.5,14-6.2,21.7-4.9l190.5,33.6c15.7,2.7,26.1,17.8,23.4,33.4l-76.9,436
				c-1.3,7.5-5.5,14.2-11.7,18.6C506.8,1680.6,501.1,1682.4,495.2,1682.4z M490.5,1680.2c7.1,1.3,14.4-0.4,20.3-4.5
				c5.8-4.1,9.7-10.2,10.9-17.4l76.9-436c2.6-14.7-7.2-28.7-22-31.3l-190.5-33.6c-7.1-1.3-14.4,0.4-20.3,4.5
				c-5.8,4.1-9.7,10.2-10.9,17.4l-76.9,436c-2.6,14.7,7.2,28.7,22,31.3L490.5,1680.2z"/>
		</g>
		<g>
			<path class="st0" d="M525.1,1199.2c-1.1,0-2.1-0.1-3.2-0.3l-86.9-15.4c-9.8-1.7-16.5-11.2-14.8-21.1l1.8,0.3
				c-1.6,8.9,4.4,17.5,13.3,19l86.9,15.4c4.3,0.8,8.7-0.2,12.3-2.7c3.5-2.5,5.9-6.2,6.6-10.5l1.8,0.3c-0.8,4.7-3.5,8.9-7.4,11.7
				C532.5,1198,528.8,1199.2,525.1,1199.2z"/>
		</g>
		<g class="st4">
			<path class="st0" d="M576.9,1190.1l-27.3-4.8c-0.3,0.4-0.5,0.9-0.8,1.3c-15.7,26.5-11.1,59.8-6.9,90.3
				c4.2,30.5,6.7,64.5-11.7,89.2c-14.7,19.6-39.4,28.5-63.2,33.8c-23.8,5.3-48.8,8.2-70.2,19.9c-35.6,19.3-56,60.6-56.6,101.2
				c-0.6,40.5,16.4,79.8,40.4,112.3c8.7,11.8,18.5,23,28.7,33.5l81,14.3c15.2,2.7,29.7-7.4,32.3-22.7l76.9-436
				C602.2,1207.3,592,1192.8,576.9,1190.1z"/>
		</g>
		<g class="st4">
			<path class="st0" d="M490.3,1681.1c15.2,2.7,29.7-7.4,32.3-22.7l3.5-20c-18.3-21-44.2-33.8-68.2-48.1
				c-25.3-15.1-50.7-34.2-59.9-62.2c-6.1-18.6-4.2-38.8-0.7-58.1c6-33.1,16.6-65.4,19.7-98.9c3.1-33.5-2.3-69.6-24.4-95
				c-13.3-15.4-30.9-24.9-50.2-30.9L277.1,1615c-2.7,15.2,7.4,29.7,22.7,32.3L490.3,1681.1z"/>
		</g>
	</g>
	<g class="st3">
		<g>
			<path class="st0" d="M699.1,546.7c-2.1,0-4.2-0.2-6.3-0.6l-195.2-34.4c-19.5-3.4-32.4-22.1-29-41.4l77.7-440.6
				c1.6-9.3,6.8-17.6,14.6-23.1c7.8-5.6,17.5-7.7,27-6L783,35c19.5,3.4,32.4,22.1,29,41.4L734.4,517c-1.6,9.3-6.8,17.6-14.6,23.1
				C713.6,544.4,706.5,546.7,699.1,546.7z M693.2,544.3c9,1.6,18.1-0.4,25.5-5.7c7.3-5.2,12.2-12.9,13.7-21.8l77.7-440.6
				c3.2-18.5-9.1-36.1-27.6-39.4L587.3,2.4c-9-1.6-18.1,0.4-25.5,5.7c-7.3,5.2-12.2,12.9-13.7,21.8l-77.7,440.6
				c-3.2,18.5,9.1,36.1,27.6,39.4L693.2,544.3z"/>
		</g>
		<g>
			<path class="st0" d="M697.1,537c-1.7,0-3.4-0.1-5.1-0.4L501.5,503c-15.7-2.7-26.1-17.8-23.4-33.4l76.9-436
				c1.3-7.5,5.5-14.2,11.7-18.6c6.3-4.5,14-6.2,21.7-4.9l190.5,33.6c15.7,2.7,26.1,17.8,23.4,33.4l-76.9,436
				c-1.3,7.5-5.5,14.2-11.7,18.6C708.9,535.2,703,537,697.1,537z M583.4,11.6c-5.5,0-10.9,1.7-15.6,5c-5.8,4.1-9.7,10.2-10.9,17.4
				l-76.9,436c-2.6,14.7,7.2,28.7,22,31.3l190.5,33.6c7.1,1.3,14.4-0.4,20.3-4.5c5.8-4.1,9.7-10.2,10.9-17.4l76.9-436
				c2.6-14.7-7.2-28.7-22-31.3L588.1,12C586.6,11.8,585,11.6,583.4,11.6z"/>
		</g>
		<g>
			<path class="st0" d="M727,53.9c-1.1,0-2.1-0.1-3.2-0.3l-86.9-15.4c-9.8-1.7-16.5-11.2-14.8-21.1l1.8,0.3
				c-1.6,8.9,4.4,17.5,13.3,19l86.9,15.4c4.3,0.8,8.7-0.2,12.3-2.7c3.5-2.5,5.9-6.2,6.6-10.5l1.8,0.3c-0.8,4.7-3.5,8.9-7.4,11.7
				C734.5,52.7,730.8,53.9,727,53.9z"/>
		</g>
		<g class="st4">
			<path class="st0" d="M778.8,44.7l-27.3-4.8c-0.3,0.4-0.5,0.9-0.8,1.3c-15.7,26.5-11.1,59.8-6.9,90.3s6.7,64.5-11.7,89.2
				c-14.7,19.6-39.4,28.5-63.2,33.8c-23.8,5.3-48.8,8.2-70.2,19.9c-35.6,19.3-56,60.6-56.6,101.2c-0.6,40.5,16.4,79.8,40.4,112.3
				c8.7,11.8,18.5,23,28.7,33.5l81,14.3c15.2,2.7,29.7-7.4,32.3-22.7l76.9-436C804.2,61.9,794,47.4,778.8,44.7z"/>
		</g>
		<g class="st4">
			<path class="st0" d="M692.3,535.6c15.2,2.7,29.7-7.4,32.3-22.7l3.5-20c-18.3-21-44.2-33.8-68.2-48.1
				c-25.3-15.1-50.7-34.2-59.9-62.2c-6.1-18.6-4.2-38.8-0.7-58.1c6-33.1,16.6-65.4,19.7-98.9s-2.3-69.6-24.4-95
				c-13.3-15.4-30.9-24.9-50.2-30.9l-65.2,369.8c-2.7,15.2,7.4,29.7,22.7,32.3L692.3,535.6z"/>
		</g>
	</g>
	<g class="st3">
		<g>
			<path class="st0" d="M231.1,1287.6c-2.1,0-4.2-0.2-6.3-0.6l-195.2-34.4c-19.5-3.4-32.4-22.1-29-41.4l77.7-440.6
				c1.6-9.3,6.8-17.6,14.6-23.1c7.8-5.6,17.5-7.7,27-6l195.1,34.4c19.5,3.4,32.4,22.1,29,41.4l-77.7,440.6
				c-1.6,9.3-6.8,17.6-14.6,23.1C245.5,1285.3,238.4,1287.6,231.1,1287.6z M225.1,1285.2c9,1.6,18.1-0.4,25.5-5.7
				c7.3-5.2,12.2-12.9,13.7-21.8l77.7-440.6c3.2-18.5-9.1-36.1-27.6-39.4l-195.2-34.4c-9-1.6-18.1,0.4-25.5,5.7
				c-7.3,5.2-12.2,12.9-13.7,21.8L2.4,1211.4c-3.2,18.5,9.1,36.1,27.6,39.4L225.1,1285.2z"/>
		</g>
		<g>
			<path class="st0" d="M229.1,1277.8c-1.7,0-3.4-0.1-5.1-0.4l-190.5-33.6c-15.7-2.7-26.1-17.8-23.4-33.4L87,774.5
				c1.3-7.5,5.5-14.2,11.7-18.6c6.3-4.5,14-6.2,21.7-4.9l190.5,33.6c15.7,2.7,26.1,17.8,23.4,33.4l-76.9,436
				c-1.3,7.5-5.5,14.2-11.7,18.6C240.8,1276,235,1277.8,229.1,1277.8z M224.3,1275.6c7.1,1.3,14.4-0.4,20.3-4.5
				c5.8-4.1,9.7-10.2,10.9-17.4l76.9-436c2.6-14.7-7.2-28.7-22-31.3L120,752.9c-7.1-1.3-14.4,0.4-20.3,4.5
				c-5.8,4.1-9.7,10.2-10.9,17.4l-76.9,435.9c-2.6,14.7,7.2,28.7,22,31.3L224.3,1275.6z"/>
		</g>
		<g>
			<path class="st0" d="M259,794.7c-1.1,0-2.1-0.1-3.2-0.3L168.8,779c-9.8-1.7-16.5-11.2-14.8-21.1l1.8,0.3
				c-1.6,8.9,4.4,17.5,13.3,19l86.9,15.4c4.3,0.8,8.7-0.2,12.3-2.7c3.5-2.5,5.9-6.2,6.6-10.5l1.8,0.3c-0.8,4.7-3.5,8.9-7.4,11.7
				C266.4,793.5,262.8,794.7,259,794.7z"/>
		</g>
		<g class="st4">
			<path class="st0" d="M310.7,785.6l-27.3-4.8c-0.3,0.4-0.5,0.9-0.8,1.3c-15.7,26.5-11.1,59.8-6.9,90.3
				c4.2,30.5,6.7,64.5-11.7,89.2c-14.7,19.6-39.4,28.5-63.2,33.8c-23.8,5.3-48.8,8.2-70.2,19.9c-35.6,19.3-56,60.6-56.6,101.2
				c-0.6,40.5,16.4,79.8,40.4,112.3c8.7,11.8,18.5,23,28.7,33.5l81,14.3c15.2,2.7,29.7-7.4,32.3-22.7L333.4,818
				C336,802.7,325.9,788.3,310.7,785.6z"/>
		</g>
		<g class="st4">
			<path class="st0" d="M224.1,1276.5c15.2,2.7,29.7-7.4,32.3-22.7l3.5-20c-18.3-21-44.2-33.8-68.2-48.1
				c-25.3-15.1-50.7-34.2-59.9-62.2c-6.1-18.6-4.2-38.8-0.7-58.1c6-33.1,16.6-65.4,19.7-98.9c3.1-33.5-2.3-69.6-24.4-95
				c-13.3-15.4-30.9-24.9-50.2-30.9L11,1210.5c-2.7,15.2,7.4,29.7,22.7,32.3L224.1,1276.5z"/>
		</g>
	</g>
	<g class="st3">
		<g>
			<path class="st0" d="M986.6,830.3c-2.1,0-4.2-0.2-6.3-0.6L785,795.3c-19.5-3.4-32.4-22.1-29-41.4l77.7-440.6
				c1.6-9.3,6.8-17.6,14.6-23.1c7.8-5.6,17.5-7.7,27-6l195.2,34.4c19.5,3.4,32.4,22.1,29,41.4l-77.7,440.6
				c-1.6,9.3-6.8,17.6-14.6,23.1C1001.1,828,993.9,830.3,986.6,830.3z M980.6,827.9c9,1.6,18.1-0.4,25.5-5.7
				c7.3-5.2,12.2-12.9,13.7-21.8l77.7-440.6c3.2-18.5-9.1-36.1-27.6-39.4L874.8,286c-9-1.6-18.1,0.4-25.5,5.7
				c-7.3,5.2-12.2,12.9-13.7,21.8l-77.7,440.6c-3.2,18.5,9.1,36.1,27.6,39.4L980.6,827.9z"/>
		</g>
		<g>
			<path class="st0" d="M984.6,820.6c-1.7,0-3.4-0.1-5.1-0.4l-190.5-33.6c-15.7-2.7-26.1-17.8-23.4-33.4l76.9-436
				c1.3-7.5,5.5-14.2,11.7-18.6c6.3-4.5,14-6.2,21.7-4.9l190.5,33.6c15.7,2.7,26.1,17.8,23.4,33.4l-76.9,436
				c-1.3,7.5-5.5,14.2-11.7,18.6C996.3,818.7,990.6,820.6,984.6,820.6z M979.9,818.3c7.1,1.3,14.4-0.4,20.3-4.5
				c5.8-4.1,9.7-10.2,10.9-17.4l76.9-436c2.6-14.7-7.2-28.7-22-31.3l-190.5-33.6c-7.1-1.3-14.4,0.4-20.3,4.5
				c-5.8,4.1-9.7,10.2-10.9,17.4l-76.9,436c-2.6,14.7,7.2,28.7,22,31.3L979.9,818.3z"/>
		</g>
		<g>
			<path class="st0" d="M1014.6,337.4c-1.1,0-2.1-0.1-3.2-0.3l-86.9-15.4c-9.8-1.7-16.5-11.2-14.8-21.1l1.8,0.3
				c-1.6,8.9,4.4,17.5,13.3,19l86.9,15.4c4.3,0.8,8.7-0.2,12.3-2.7c3.5-2.5,5.9-6.2,6.6-10.5l1.8,0.3c-0.8,4.7-3.5,8.9-7.4,11.7
				C1021.9,336.3,1018.3,337.4,1014.6,337.4z"/>
		</g>
		<g class="st4">
			<path class="st0" d="M1066.2,328.3l-27.3-4.8c-0.3,0.4-0.5,0.9-0.8,1.3c-15.7,26.5-11.1,59.8-6.9,90.3
				c4.2,30.5,6.7,64.5-11.7,89.2c-14.7,19.6-39.4,28.5-63.2,33.8s-48.8,8.2-70.2,19.9c-35.6,19.3-56,60.6-56.6,101.2
				c-0.6,40.5,16.4,79.8,40.4,112.3c8.7,11.8,18.5,23,28.7,33.5l81,14.3c15.2,2.7,29.7-7.4,32.3-22.7l76.9-436
				C1091.6,345.5,1081.5,331,1066.2,328.3z"/>
		</g>
		<g class="st4">
			<path class="st0" d="M979.7,819.2c15.2,2.7,29.7-7.4,32.3-22.7l3.5-20c-18.3-21-44.2-33.8-68.2-48.1
				c-25.3-15.1-50.7-34.2-59.9-62.2c-6.1-18.6-4.2-38.8-0.7-58.1c6-33.1,16.6-65.4,19.7-98.9c3.1-33.5-2.3-69.6-24.4-95
				c-13.3-15.4-30.9-24.9-50.2-30.9l-65.2,369.8c-2.7,15.2,7.4,29.7,22.7,32.3L979.7,819.2z"/>
		</g>
	</g>
	<g class="st3">
		<g>
			<path class="st0" d="M332,714.9c-2.1,0-4.2-0.2-6.3-0.6l-195.2-34.4c-19.5-3.4-32.4-22.1-29-41.4l77.7-440.6
				c1.6-9.3,6.8-17.6,14.6-23.1c7.8-5.6,17.5-7.7,27-6l195.2,34.4c19.5,3.4,32.4,22.1,29,41.4l-77.7,440.6
				c-1.6,9.3-6.8,17.6-14.6,23.1C346.5,712.6,339.4,714.9,332,714.9z M326.1,712.5c9,1.6,18.1-0.4,25.5-5.7
				c7.3-5.2,12.2-12.9,13.7-21.8L443,244.4c3.2-18.5-9.1-36.1-27.6-39.4l-195.2-34.4c-9-1.6-18.1,0.4-25.5,5.7
				c-7.3,5.2-12.2,12.9-13.7,21.8l-77.7,440.6c-3.2,18.5,9.1,36.1,27.6,39.4L326.1,712.5z"/>
		</g>
		<g>
			<path class="st0" d="M330,705.2c-1.7,0-3.4-0.1-5.1-0.4l-190.4-33.7c-15.7-2.7-26.1-17.8-23.4-33.4L188,201.8
				c1.3-7.5,5.5-14.2,11.7-18.6c6.3-4.5,14-6.2,21.7-4.9l190.5,33.6c15.7,2.7,26.1,17.8,23.4,33.4l-76.9,436
				c-1.3,7.5-5.5,14.2-11.7,18.6C341.8,703.3,335.9,705.2,330,705.2z M325.4,702.9c7.1,1.3,14.4-0.4,20.3-4.5
				c5.8-4.1,9.7-10.2,10.9-17.4l76.9-436c2.6-14.7-7.2-28.7-22-31.3L221,180.1c-7.1-1.3-14.4,0.4-20.3,4.5
				c-5.8,4.1-9.7,10.2-10.9,17.4l-76.9,435.9c-2.6,14.7,7.2,28.7,22,31.3L325.4,702.9z"/>
		</g>
		<g>
			<path class="st0" d="M359.9,222c-1.1,0-2.1-0.1-3.2-0.3l-86.9-15.4c-9.8-1.7-16.5-11.2-14.8-21.1l1.8,0.3
				c-1.6,8.9,4.4,17.5,13.3,19l86.9,15.4c4.3,0.8,8.7-0.2,12.3-2.7c3.5-2.5,5.9-6.2,6.6-10.5l1.8,0.3c-0.8,4.7-3.5,8.9-7.4,11.7
				C367.4,220.9,363.7,222,359.9,222z"/>
		</g>
		<g class="st4">
			<path class="st0" d="M411.7,212.9l-27.3-4.8c-0.3,0.4-0.5,0.9-0.8,1.3c-15.7,26.5-11.1,59.8-6.9,90.3
				c4.2,30.5,6.7,64.5-11.7,89.2c-14.7,19.6-39.4,28.5-63.2,33.8s-48.8,8.2-70.2,19.9c-35.6,19.3-56,60.6-56.6,101.2
				c-0.6,40.5,16.4,79.8,40.4,112.3c8.7,11.8,18.5,23,28.7,33.5l81,14.3c15.2,2.7,29.7-7.4,32.3-22.7l76.9-436
				C437.1,230,427,215.5,411.7,212.9z"/>
		</g>
		<g class="st4">
			<path class="st0" d="M325.2,703.8c15.2,2.7,29.7-7.4,32.3-22.7l3.5-20c-18.3-21-44.2-33.8-68.2-48.1
				c-25.3-15.1-50.7-34.2-59.9-62.2c-6.1-18.6-4.2-38.8-0.7-58.1c6-33.1,16.6-65.4,19.7-98.9c3.1-33.5-2.3-69.6-24.4-95
				c-13.3-15.4-30.9-24.9-50.2-30.9L112,637.7c-2.7,15.2,7.4,29.7,22.7,32.3L325.2,703.8z"/>
		</g>
	</g>
	<path class="st5" d="M539.4,1005.6c-11.2-9.1-25.3-15.3-38.8-21.1c-21.2-9.2-41-17.9-51.2-37.1c-12.2-23.3-2.6-51.5,9.3-68.5
		c11.3-16.2,27-29,42.1-41.4c3.6-2.9,7.3-6,10.9-9c17.8-15,36.8-33.6,44.2-58.3c5.2-17.9,3.6-37.5-4.9-56.9
		c-7.7-17.8-20.9-34.1-36.8-46.2c-19.1-14.5-41.3-23.7-64.4-30.5l-0.3,1.7c22.9,6.8,44.9,16,63.7,30.2
		c15.8,11.9,28.7,28.1,36.3,45.6c8.3,19,9.9,38.2,4.8,55.8c-7.1,24.3-26,42.7-43.6,57.5c-3.6,3-7.3,6.1-10.9,9
		c-15.3,12.4-31,25.4-42.5,41.7c-12.2,17.5-22.1,46.4-9.5,70.4c10.4,19.8,31.6,29,52.1,37.8c13.4,5.8,27.3,11.8,38.4,20.9
		c11.2,9.1,20,22.3,24.3,36.9c4.4,14.8,4.4,30.4,0,44.3c-1.5,4.8-3.6,9.5-6.2,14l1.8,0.3c2.5-4.4,4.5-9,6-13.8
		C573.7,1059.2,563.4,1025,539.4,1005.6z"/>
	<path class="st5" d="M636,1015.8l0.3-1.9c-17.2-9.7-31.4-24.9-38.8-43c-13.5-32.9-4.4-74.4,21.7-98.6c3-2.8,6.3-5.5,9.6-8.1
		c7.3-5.9,14.9-11.9,19.8-20.2c11.9-20,4.2-46.1-7-63.8c-5.4-8.5-11.9-16.6-18.2-24.3c-7.5-9.2-15.3-18.9-21.2-29.4
		c-13.8-24.7-17-55.5-8.4-82.5c4.4-13.8,11.8-26.8,21.6-37.7l-2-0.3c-9.5,10.9-16.9,23.8-21.3,37.5c-8.6,27.4-5.4,58.8,8.5,83.9
		c5.9,10.6,13.7,20.3,21.4,29.6c6.2,7.7,12.7,15.7,18.1,24.1c10.9,17.4,18.6,42.7,7,62c-4.7,7.9-12.1,13.9-19.4,19.7
		c-3.2,2.6-6.6,5.3-9.6,8.1c-12.9,11.9-22.3,28.6-26.3,46.9c-4,18.3-2.5,37.2,4.2,53.6c6.7,16.4,19.1,30.9,34.8,41
		C632.4,1013.7,634.2,1014.8,636,1015.8z"/>
	<g>
		
			<linearGradient id="SVGID_2_" gradientUnits="userSpaceOnUse" x1="243.8341" y1="613.2758" x2="459.7566" y2="613.2758" gradientTransform="matrix(0.9848 0.1736 0.1736 -0.9848 136.054 1468.2993)">
			<stop  offset="0" style="stop-color:#FD7D50"/>
			<stop  offset="0.9986" style="stop-color:#FDE375"/>
		</linearGradient>
		<path class="st6" d="M697.6,895.4L497.1,860c-3.4-0.6-6.6,1.6-7.1,5l-11.1,63.2c-0.6,3.4,1.6,6.6,5,7.1l20.2,3.5l-17,14.3
			c-0.3,0.3-0.5,0.7-0.6,1.1c-0.2,1.2,0.6,2.3,1.8,2.6c0.4,0.1,0.8,0,1.1-0.1l43.4-12.8l151.6,26.7c3.4,0.6,6.6-1.6,7.1-5l11.1-63.2
			C703.2,899.2,700.9,896,697.6,895.4z"/>
		<path class="st7" d="M681.2,917.3l-130-22.9c-1.4-0.2-2.3-1.6-2.1-3l0.6-3.2c0.2-1.4,1.6-2.3,3-2.1l130,22.9
			c1.4,0.2,2.3,1.6,2.1,3l-0.6,3.2C683.9,916.6,682.6,917.6,681.2,917.3z"/>
		<path class="st7" d="M536.2,891.7l-31.1-5.5c-1.4-0.2-2.3-1.6-2.1-3l0.6-3.2c0.2-1.4,1.6-2.3,3-2.1l31.1,5.5
			c1.4,0.2,2.3,1.6,2.1,3l-0.6,3.2C538.9,891,537.6,892,536.2,891.7z"/>
		<path class="st7" d="M678.1,934.9l-38.5-6.8c-1.4-0.2-2.3-1.6-2.1-3l0.6-3.2c0.2-1.4,1.6-2.3,3-2.1l38.5,6.8
			c1.4,0.2,2.3,1.6,2.1,3l-0.6,3.2C680.8,934.2,679.5,935.2,678.1,934.9z"/>
		<path class="st7" d="M624.5,925.5l-122.5-21.6c-1.4-0.2-2.3-1.6-2.1-3l0.6-3.2c0.2-1.4,1.6-2.3,3-2.1L626,917.1
			c1.4,0.2,2.3,1.6,2.1,3l-0.6,3.2C627.2,924.8,625.9,925.8,624.5,925.5z"/>
		<path class="st7" d="M674.9,952.5l-75.6-13.3c-1.4-0.2-2.3-1.6-2.1-3l0.6-3.2c0.2-1.4,1.6-2.3,3-2.1l75.6,13.3
			c1.4,0.2,2.3,1.6,2.1,3l-0.6,3.2C677.7,951.8,676.3,952.8,674.9,952.5z"/>
		<path class="st7" d="M584.3,936.5l-85.5-15.1c-1.4-0.2-2.3-1.6-2.1-3l0.6-3.2c0.2-1.4,1.6-2.3,3-2.1l85.5,15.1
			c1.4,0.2,2.3,1.6,2.1,3l-0.6,3.2C587,935.8,585.7,936.8,584.3,936.5z"/>
		<path class="st0" d="M539.3,858.5l-35.4-6.2c-1.2-0.2-2.3,0.6-2.5,1.7v0.3c-0.2,1.2,0.6,2.3,1.7,2.5l35.4,6.2
			c1.2,0.2,2.3-0.6,2.5-1.7V861C541.2,859.8,540.4,858.7,539.3,858.5z"/>
	</g>
	<g>
		
			<linearGradient id="SVGID_3_" gradientUnits="userSpaceOnUse" x1="2839.3203" y1="733.0099" x2="3055.2578" y2="733.0099" gradientTransform="matrix(-0.9848 -0.1736 0.1736 -0.9848 3261.542 2020.0802)">
			<stop  offset="0" style="stop-color:#2F8ADD"/>
			<stop  offset="0.9986" style="stop-color:#A6FFF4"/>
		</linearGradient>
		<path class="st8" d="M394.4,721.1L595,756.5c3.4,0.6,5.6,3.8,5,7.1l-11.1,63.2c-0.6,3.4-3.8,5.6-7.1,5l-20.2-3.5l11,19.2
			c0.2,0.4,0.2,0.8,0.2,1.3c-0.2,1.2-1.4,2-2.6,1.8c-0.4-0.1-0.7-0.2-1-0.5l-36.3-26.9l-151.6-26.7c-3.4-0.6-5.6-3.8-5-7.1
			l11.1-63.2C387.8,722.7,391,720.5,394.4,721.1z"/>
		<path class="st7" d="M578.5,778.5l-78.8-13.8c-1.4-0.2-2.3-1.6-2.1-3l0.6-3.2c0.2-1.4,1.6-2.3,3-2.1l78.8,13.8
			c1.4,0.2,2.3,1.6,2.1,3l-0.6,3.2C581.2,777.8,579.9,778.7,578.5,778.5z"/>
		<path class="st7" d="M484.7,762l-82.3-14.6c-1.4-0.2-2.3-1.6-2.1-3l0.6-3.2c0.2-1.4,1.6-2.3,3-2.1l82.3,14.6
			c1.4,0.2,2.3,1.6,2.1,3l-0.6,3.2C487.4,761.3,486.1,762.2,484.7,762z"/>
		<path class="st7" d="M575.4,796.1l-114-20.1c-1.4-0.2-2.3-1.6-2.1-3l0.6-3.2c0.2-1.4,1.6-2.3,3-2.1l114,20.1
			c1.4,0.2,2.3,1.6,2.1,3l-0.6,3.2C578.1,795.4,576.8,796.3,575.4,796.1z"/>
		<path class="st7" d="M446.3,773.3l-47.1-8.3c-1.4-0.2-2.3-1.6-2.1-3l0.6-3.2c0.2-1.4,1.6-2.3,3-2.1l47.1,8.3
			c1.4,0.2,2.3,1.6,2.1,3l-0.6,3.2C449,772.6,447.7,773.5,446.3,773.3z"/>
		<path class="st7" d="M572.3,813.7l-32-5.6c-1.4-0.2-2.3-1.6-2.1-3l0.6-3.2c0.2-1.4,1.6-2.3,3-2.1l32,5.6c1.4,0.2,2.3,1.6,2.1,3
			l-0.6,3.2C575.1,813,573.7,813.9,572.3,813.7z"/>
		<path class="st7" d="M525.3,805.3l-129.2-22.8c-1.4-0.2-2.3-1.6-2.1-3l0.6-3.2c0.2-1.4,1.6-2.3,3-2.1L526.8,797
			c1.4,0.2,2.3,1.6,2.1,3l-0.6,3.2C528,804.6,526.7,805.6,525.3,805.3z"/>
		<path class="st0" d="M555.8,740.7l35.4,6.2c1.2,0.2,1.9,1.3,1.7,2.5v0.3c-0.2,1.2-1.3,1.9-2.5,1.7l-35.4-6.2
			c-1.2-0.2-1.9-1.3-1.7-2.5v-0.3C553.5,741.2,554.6,740.5,555.8,740.7z"/>
	</g>
	<g>
		
			<linearGradient id="SVGID_4_" gradientUnits="userSpaceOnUse" x1="2839.3762" y1="495.1515" x2="3055.311" y2="495.1515" gradientTransform="matrix(-0.9848 -0.1736 0.1736 -0.9848 3261.542 2020.0802)">
			<stop  offset="0" style="stop-color:#2F8ADD"/>
			<stop  offset="0.9986" style="stop-color:#A6FFF4"/>
		</linearGradient>
		<path class="st9" d="M353.1,955.4l200.5,35.3c3.4,0.6,5.6,3.8,5,7.1l-11.1,63.2c-0.6,3.4-3.8,5.6-7.1,5l-20.2-3.5l11,19.2
			c0.2,0.4,0.2,0.8,0.2,1.3c-0.2,1.2-1.4,2-2.6,1.8c-0.4-0.1-0.7-0.2-1-0.5l-36.3-26.9l-151.6-26.7c-3.4-0.6-5.6-3.8-5-7.1
			l11.1-63.2C346.6,957,349.8,954.8,353.1,955.4z"/>
		<path class="st7" d="M537.3,1012.7l-122.5-21.6c-1.4-0.2-2.3-1.6-2.1-3l0.6-3.2c0.2-1.4,1.6-2.3,3-2.1l122.5,21.6
			c1.4,0.2,2.3,1.6,2.1,3l-0.6,3.2C540,1012.1,538.6,1013,537.3,1012.7z"/>
		<path class="st7" d="M399.7,988.5l-38.6-6.8c-1.4-0.2-2.3-1.6-2.1-3l0.6-3.2c0.2-1.4,1.6-2.3,3-2.1l38.6,6.8
			c1.4,0.2,2.3,1.6,2.1,3l-0.6,3.2C402.4,987.8,401.1,988.7,399.7,988.5z"/>
		<path class="st7" d="M534.1,1030.2l-72.3-12.7c-1.4-0.2-2.3-1.6-2.1-3l0.6-3.2c0.2-1.4,1.6-2.3,3-2.1l72.3,12.7
			c1.4,0.2,2.3,1.6,2.1,3l-0.6,3.2C536.9,1029.6,535.5,1030.5,534.1,1030.2z"/>
		<path class="st7" d="M446.8,1014.9L358,999.2c-1.4-0.2-2.3-1.6-2.1-3l0.6-3.2c0.2-1.4,1.6-2.3,3-2.1l88.8,15.7
			c1.4,0.2,2.3,1.6,2.1,3l-0.6,3.2C449.5,1014.2,448.2,1015.2,446.8,1014.9z"/>
		<path class="st7" d="M531,1047.9l-91-16.1c-1.4-0.2-2.3-1.6-2.1-3l0.6-3.2c0.2-1.4,1.6-2.3,3-2.1l91,16.1c1.4,0.2,2.3,1.6,2.1,3
			l-0.6,3.2C533.7,1047.2,532.4,1048.1,531,1047.9z"/>
		<path class="st7" d="M425,1029.1l-70.1-12.3c-1.4-0.2-2.3-1.6-2.1-3l0.6-3.2c0.2-1.4,1.6-2.3,3-2.1l70.1,12.3
			c1.4,0.2,2.3,1.6,2.1,3l-0.6,3.2C427.8,1028.4,426.4,1029.4,425,1029.1z"/>
		<path class="st0" d="M514.6,974.8l35.4,6.2c1.2,0.2,1.9,1.3,1.7,2.5v0.3c-0.2,1.2-1.3,1.9-2.5,1.7l-35.4-6.2
			c-1.2-0.2-1.9-1.3-1.7-2.5v-0.3C512.3,975.4,513.4,974.6,514.6,974.8z"/>
	</g>
	<g>
		
			<linearGradient id="SVGID_5_" gradientUnits="userSpaceOnUse" x1="243.791" y1="851.1166" x2="459.7135" y2="851.1166" gradientTransform="matrix(0.9848 0.1736 0.1736 -0.9848 136.054 1468.2993)">
			<stop  offset="0" style="stop-color:#FD7D50"/>
			<stop  offset="0.9986" style="stop-color:#FDE375"/>
		</linearGradient>
		<path class="st10" d="M738.9,661.1l-200.5-35.3c-3.4-0.6-6.6,1.6-7.1,5L520.1,694c-0.6,3.4,1.6,6.6,5,7.1l20.2,3.5l-17,14.3
			c-0.3,0.3-0.5,0.7-0.6,1.1c-0.2,1.2,0.6,2.3,1.8,2.6c0.4,0.1,0.8,0,1.1-0.1l43.4-12.8l151.6,26.7c3.4,0.6,6.6-1.6,7.1-5l11.1-63.2
			C744.5,664.9,742.3,661.7,738.9,661.1z"/>
		<path class="st7" d="M722.4,683.1l-106.7-18.9c-1.4-0.2-2.3-1.6-2.1-3l0.6-3.2c0.2-1.4,1.6-2.3,3-2.1l106.7,18.9
			c1.4,0.2,2.3,1.6,2.1,3l-0.6,3.2C725.2,682.5,723.8,683.4,722.4,683.1z"/>
		<path class="st7" d="M600.7,661.7l-54.4-9.6c-1.4-0.2-2.3-1.6-2.1-3l0.6-3.2c0.2-1.4,1.6-2.3,3-2.1l54.4,9.6
			c1.4,0.2,2.3,1.6,2.1,3l-0.6,3.2C603.4,661,602.1,661.9,600.7,661.7z"/>
		<path class="st7" d="M719.3,700.8l-73.9-13c-1.4-0.2-2.3-1.6-2.1-3l0.6-3.2c0.2-1.4,1.6-2.3,3-2.1l73.9,13c1.4,0.2,2.3,1.6,2.1,3
			l-0.6,3.2C722.1,700.1,720.7,701,719.3,700.8z"/>
		<path class="st7" d="M630.5,685l-87.3-15.4c-1.4-0.2-2.3-1.6-2.1-3l0.6-3.2c0.2-1.4,1.6-2.3,3-2.1l87.3,15.4
			c1.4,0.2,2.3,1.6,2.1,3l-0.6,3.2C633.2,684.3,631.9,685.3,630.5,685z"/>
		<path class="st7" d="M716.3,718.3l-32-5.6c-1.4-0.2-2.3-1.6-2.1-3l0.6-3.2c0.2-1.4,1.6-2.3,3-2.1l32,5.6c1.4,0.2,2.3,1.6,2.1,3
			l-0.6,3.2C719,717.6,717.7,718.5,716.3,718.3z"/>
		<path class="st7" d="M669.2,710l-129.2-22.8c-1.4-0.2-2.3-1.6-2.1-3l0.6-3.2c0.2-1.4,1.6-2.3,3-2.1l129.2,22.8
			c1.4,0.2,2.3,1.6,2.1,3l-0.6,3.2C671.9,709.3,670.6,710.2,669.2,710z"/>
		<path class="st0" d="M580.5,624.3l-35.4-6.2c-1.2-0.2-2.3,0.6-2.5,1.7v0.3c-0.2,1.2,0.6,2.3,1.7,2.5l35.4,6.2
			c1.2,0.2,2.3-0.6,2.5-1.7v-0.3C582.5,625.6,581.7,624.5,580.5,624.3z"/>
	</g>
</g>
</svg>
