<?xml version="1.0" encoding="utf-8"?>
<!-- Generator: Adobe Illustrator 24.2.1, SVG Export Plug-In . SVG Version: 6.00 Build 0)  -->
<svg version="1.1" id="Warstwa_1" xmlns="http://www.w3.org/2000/svg" xmlns:xlink="http://www.w3.org/1999/xlink" x="0px" y="0px"
	 viewBox="0 0 500 500" style="enable-background:new 0 0 500 500;" xml:space="preserve">
<style type="text/css">
	.st0{display:none;fill:#FFFFFF;}
	.st1{fill:#BFB2BC;}
	.st2{fill:#5140A5;}
</style>
<path class="st0" d="M94.6,315.7c-1.1,0-2.3-0.2-3.3-0.7c-3-1.3-4.9-4.3-4.9-7.5v-29.5c-9.6-3.5-18.2-9.7-24.7-17.7
	c-8-9.9-12.4-22.4-12.4-35.2v-47.5c0-15,5.9-29.2,16.5-39.8c10.6-10.6,24.8-16.5,39.8-16.5h140.9c15,0,29.2,5.9,39.8,16.5
	c10.6,10.6,16.5,24.8,16.5,39.8V225c0,15-5.9,29.2-16.5,39.8c-10.6,10.6-24.8,16.5-39.8,16.5H135.5l-35.3,32.2
	C98.6,314.9,96.6,315.7,94.6,315.7z M105.7,137.6c-22,0-39.8,17.9-39.8,39.8V225c0,9.2,3,17.8,8.7,24.9c5.6,6.9,13.3,11.9,21.9,13.9
	c3.7,0.9,6.3,4.2,6.3,8v17l23.9-21.8c1.5-1.4,3.5-2.2,5.5-2.2h114.3c22,0,39.8-17.9,39.8-39.8v-47.5c0-22-17.9-39.8-39.8-39.8H105.7
	z"/>
<path class="st0" d="M398.7,378.8c-2,0-4-0.7-5.6-2.2L351,338.2H219c-17.4,0-33.7-6.8-46-19c-12.3-12.3-19-28.6-19-46V217
	c0-17.4,6.8-33.7,19-46c12.3-12.3,28.6-19,46-19h166.6c17.4,0,33.7,6.8,46,19c12.3,12.3,19,28.6,19,46v56.2c0,7.5-1.3,14.9-3.8,21.9
	c-2.4,6.8-6,13.1-10.5,18.7c-7.7,9.6-18,16.8-29.5,20.8v36c0,3.3-1.9,6.2-4.9,7.5C400.9,378.6,399.8,378.8,398.7,378.8z M219,168.4
	c-26.8,0-48.6,21.8-48.6,48.6v56.2c0,26.8,21.8,48.6,48.6,48.6h135.1c2.1,0,4,0.8,5.5,2.2l30.7,28v-23.5c0-3.8,2.6-7.1,6.3-8
	c10.5-2.5,20-8.5,26.7-16.9c7-8.7,10.7-19.2,10.7-30.4V217c0-26.8-21.8-48.6-48.6-48.6H219z"/>
<path class="st1" d="M214.6,268.8v-59l62.1-22.5l17.1-19c-4.3-22.1-23.8-38.9-47.2-38.9H105.7c-26.5,0-48.1,21.5-48.1,48.1V225
	c0,22.7,15.8,41.8,37,46.8v35.6l37.7-34.4H226L214.6,268.8z"/>
<path class="st2" d="M385.6,160.2H219c-31.4,0-56.8,25.4-56.8,56.8v56.2c0,31.4,25.4,56.8,56.8,56.8h135.1l44.5,40.6v-42.1
	c25.1-5.9,43.7-28.4,43.7-55.3V217C442.4,185.6,417,160.2,385.6,160.2z M251,257.5c-8.1,0-14.7-6.6-14.7-14.7
	c0-8.1,6.6-14.7,14.7-14.7c8.1,0,14.7,6.6,14.7,14.7C265.8,250.9,259.2,257.5,251,257.5z M302.3,257.5c-8.1,0-14.7-6.6-14.7-14.7
	c0-8.1,6.6-14.7,14.7-14.7c8.1,0,14.7,6.6,14.7,14.7C317.1,250.9,310.5,257.5,302.3,257.5z M353.6,257.5c-8.1,0-14.7-6.6-14.7-14.7
	c0-8.1,6.6-14.7,14.7-14.7c8.1,0,14.7,6.6,14.7,14.7C368.4,250.9,361.8,257.5,353.6,257.5z"/>
</svg>
