<?xml version="1.0" encoding="utf-8"?>
<!-- Generator: Adobe Illustrator 24.2.1, SVG Export Plug-In . SVG Version: 6.00 Build 0)  -->
<svg version="1.1" id="Warstwa_1" xmlns="http://www.w3.org/2000/svg" xmlns:xlink="http://www.w3.org/1999/xlink" x="0px" y="0px"
	 viewBox="0 0 380 238.3" style="enable-background:new 0 0 380 238.3;" xml:space="preserve">
<style type="text/css">
	.st0{fill:#BFB2BC;}
	.st1{fill:#FFFFFF;}
	.st2{fill:#5140A5;}
</style>
<g>
	<path class="st0" d="M155.2,137.4V79.1l61.3-22.2l16.9-18.8C229.2,16.3,210-0.3,186.8-0.3H47.7C21.5-0.3,0.1,20.9,0.1,47.2v46.9
		c0,22.4,15.6,41.3,36.5,46.2v35.2l37.2-34h92.6L155.2,137.4z"/>
	<rect x="163.6" y="87.6" class="st1" width="156.9" height="51.7"/>
	<path class="st2" d="M324.1,30.1H159.6c-31,0-56.1,25.1-56.1,56.1v55.5c0,31,25.1,56.1,56.1,56.1H293l44,40.1v-41.6
		c24.8-5.8,43.2-28.1,43.2-54.6V86.2C380.2,55.2,355.2,30.1,324.1,30.1z M191.2,126.2c-8,0-14.5-6.5-14.5-14.5
		c0-8,6.5-14.5,14.5-14.5c8,0,14.5,6.5,14.5,14.5C205.8,119.7,199.3,126.2,191.2,126.2z M241.9,126.2c-8,0-14.5-6.5-14.5-14.5
		c0-8,6.5-14.5,14.5-14.5s14.5,6.5,14.5,14.5C256.5,119.7,250,126.2,241.9,126.2z M292.5,126.2c-8,0-14.5-6.5-14.5-14.5
		c0-8,6.5-14.5,14.5-14.5s14.5,6.5,14.5,14.5C307.1,119.7,300.6,126.2,292.5,126.2z"/>
</g>
</svg>
