<?xml version="1.0" standalone="no"?>
<!DOCTYPE svg PUBLIC "-//W3C//DTD SVG 20010904//EN"
 "http://www.w3.org/TR/2001/REC-SVG-20010904/DTD/svg10.dtd">
<svg version="1.0" xmlns="http://www.w3.org/2000/svg"
 width="1520.000000pt" height="1520.000000pt" viewBox="0 0 1520.000000 1520.000000"
 preserveAspectRatio="xMidYMid meet">
<metadata>
Created by potrace 1.14, written by Peter Selinger 2001-2017
</metadata>
<g transform="translate(0.000000,1520.000000) scale(0.100000,-0.100000)"
fill="#000000" stroke="none">
<path d="M1560 12339 c-47 -10 -94 -20 -105 -23 -56 -12 -149 -38 -163 -46
-10 -5 -44 -18 -77 -30 -151 -53 -372 -183 -516 -301 -77 -64 -239 -225 -239
-238 0 -5 -4 -11 -9 -13 -12 -4 -91 -105 -91 -117 0 -5 -4 -11 -8 -13 -10 -4
-72 -94 -72 -105 0 -4 -11 -21 -25 -37 -13 -16 -22 -32 -20 -36 3 -4 -2 -13
-10 -20 -8 -7 -12 -16 -9 -21 3 -5 0 -9 -5 -9 -6 0 -11 -9 -11 -20 0 -11 -4
-20 -10 -20 -5 0 -10 -5 -10 -11 0 -6 -7 -27 -16 -47 -47 -107 -64 -152 -57
-152 3 0 1 -6 -5 -13 -6 -7 -14 -26 -17 -42 -10 -47 -10 -49 -16 -60 -5 -8
-14 -43 -24 -100 -1 -5 -3 -12 -4 -15 -1 -3 -4 -20 -7 -39 -2 -19 -6 -46 -9
-60 -16 -83 -19 -266 -19 -1216 0 -932 3 -1133 18 -1212 3 -11 7 -38 11 -59
11 -76 15 -93 25 -119 5 -14 9 -29 9 -33 -1 -4 0 -10 1 -14 1 -5 3 -11 4 -15
13 -50 30 -104 41 -128 11 -27 25 -61 30 -75 17 -49 99 -213 127 -252 11 -16
16 -28 11 -28 -4 0 -3 -4 3 -8 6 -4 25 -29 44 -57 18 -27 48 -69 66 -91 18
-23 30 -44 27 -48 -4 -3 1 -6 10 -6 9 0 17 -5 17 -11 0 -13 187 -200 249 -249
24 -19 52 -43 63 -52 10 -10 20 -18 22 -18 4 0 134 -85 151 -98 6 -5 25 -15
43 -22 17 -8 32 -18 32 -22 0 -5 5 -8 11 -8 6 0 49 -18 95 -41 47 -22 92 -42
102 -44 9 -3 48 -15 85 -29 37 -13 70 -25 72 -25 3 -1 6 -1 8 -2 1 0 15 -3 32
-5 16 -3 34 -9 40 -14 7 -5 10 -241 10 -704 -1 -383 3 -696 7 -696 5 0 11 7
14 15 4 8 10 15 15 15 4 0 19 10 31 23 13 12 68 63 122 112 54 50 116 107 138
128 21 20 40 37 42 37 2 0 24 19 48 43 39 36 97 90 243 222 17 15 70 64 118
109 49 44 101 92 117 106 15 14 70 65 123 113 125 115 138 127 149 127 5 0 7
4 3 9 -3 6 4 15 16 22 12 6 43 32 70 58 26 25 78 73 115 106 37 33 78 70 91
83 l23 23 592 0 c391 0 595 -4 602 -11 7 -7 6 -10 -3 -10 -7 0 -10 -4 -6 -10
3 -5 8 -58 10 -117 3 -59 7 -119 10 -133 3 -14 8 -41 11 -60 3 -19 10 -60 15
-90 6 -30 12 -65 14 -78 8 -52 86 -292 122 -372 109 -242 187 -370 348 -570
35 -44 259 -264 294 -290 19 -14 42 -32 51 -40 9 -8 36 -28 60 -45 25 -16 47
-33 48 -37 2 -5 10 -8 18 -8 8 0 14 -4 14 -10 0 -5 7 -10 15 -10 8 0 15 -4 15
-10 0 -5 6 -10 13 -10 7 0 23 -9 35 -20 12 -12 22 -18 22 -15 0 4 14 -3 30
-15 17 -12 30 -18 30 -13 0 4 4 3 8 -3 21 -31 385 -179 490 -199 9 -2 17 -4
17 -5 0 -1 8 -3 19 -5 10 -2 39 -8 65 -14 25 -6 60 -13 76 -15 85 -14 102 -17
130 -23 17 -4 1285 -9 2818 -10 2190 -3 2792 -6 2802 -16 7 -6 35 -32 62 -57
26 -25 88 -81 137 -125 49 -44 105 -96 126 -115 21 -19 75 -69 120 -110 46
-41 95 -86 110 -100 15 -14 59 -54 99 -90 40 -36 90 -81 110 -100 33 -30 104
-95 225 -205 75 -68 222 -202 252 -230 18 -16 61 -56 96 -87 34 -31 79 -71 99
-90 50 -46 205 -186 260 -237 41 -36 47 -39 52 -22 2 10 1 24 -3 31 -4 7 -4
26 0 44 3 17 3 43 -1 58 -4 16 -4 30 0 32 4 3 5 27 1 53 -3 27 -3 60 0 73 4
14 3 37 -1 53 -5 16 -4 27 2 27 6 0 5 8 -1 20 -6 11 -7 20 -2 20 5 0 6 23 2
50 -4 28 -4 53 0 55 4 2 4 25 0 50 -4 25 -3 45 2 45 5 0 4 9 -2 20 -6 11 -7
20 -2 20 5 0 6 21 2 48 -3 26 -3 59 0 72 4 14 3 37 -1 53 -5 16 -4 27 2 27 6
0 5 8 -1 20 -6 11 -7 20 -2 20 5 0 6 23 2 50 -4 28 -4 53 0 55 4 2 4 25 0 50
-4 25 -3 45 2 45 5 0 4 9 -2 20 -6 11 -7 20 -2 20 5 0 6 21 2 48 -3 26 -3 59
0 72 4 14 3 37 -1 53 -5 16 -4 27 2 27 6 0 5 8 -1 20 -8 14 -8 20 0 20 6 0 9
4 6 8 -4 7 -6 51 -6 185 0 9 0 29 -1 43 -1 26 17 47 33 38 4 -3 8 -1 8 3 0 5
8 9 18 10 30 2 178 48 247 78 128 54 201 89 207 99 4 6 8 8 8 4 0 -4 23 6 50
22 28 17 55 30 60 30 6 0 10 5 10 10 0 6 5 10 11 10 10 0 190 121 215 145 6 5
28 24 49 40 60 47 265 252 265 264 0 6 4 11 9 11 17 0 212 274 249 350 7 14
27 53 46 88 19 35 34 65 35 68 1 2 12 28 25 56 13 29 27 64 31 78 4 14 11 30
15 35 4 6 11 26 15 45 4 19 11 41 16 50 6 13 32 106 45 161 2 10 6 29 9 42 6
24 9 41 30 157 11 61 13 327 12 1460 -2 762 -6 1396 -10 1410 -4 14 -9 39 -12
55 -3 17 -8 41 -10 55 -3 14 -7 34 -9 45 -3 11 -9 40 -15 65 -7 25 -13 53 -16
62 -6 26 -64 192 -80 232 -9 20 -16 39 -17 43 -2 12 -120 246 -130 258 -4 5
-31 46 -59 90 -28 44 -55 82 -60 83 -5 2 -9 9 -9 14 0 6 -7 18 -15 27 -8 9
-44 52 -81 96 -87 102 -198 211 -299 292 -44 35 -87 70 -95 77 -14 10 -56 38
-168 108 -32 20 -253 133 -267 137 -5 2 -26 9 -45 17 -40 17 -177 64 -200 69
-8 2 -17 4 -20 5 -3 1 -9 2 -14 1 -4 -1 -13 3 -20 8 -6 5 -28 12 -50 15 -21 4
-41 8 -45 11 -6 3 -25 6 -126 21 -16 2 -61 9 -100 15 -52 9 -582 13 -2020 14
-1073 0 -1956 4 -1963 9 -7 4 -12 14 -12 22 0 8 -8 29 -17 47 -9 18 -17 34
-18 37 0 3 -16 34 -34 70 -19 36 -39 75 -45 87 -6 13 -14 23 -18 23 -5 0 -8 6
-8 13 -1 30 -170 246 -276 351 -55 55 -77 76 -170 155 -34 28 -155 110 -215
145 -70 41 -255 129 -266 127 -2 0 -23 8 -48 19 -25 11 -45 17 -45 13 0 -3 -6
-1 -12 5 -14 10 -144 43 -268 67 -64 12 -512 14 -3110 14 -2922 -1 -3038 -2
-3120 -20z"/>
</g>
</svg>
